solid Created by stlwrite.m 28-Apr-2026 09:22:06
facet normal -4.3141626E-02 0.0000000E+00 9.9906898E-01
outer loop
vertex -2.6315789E+00 -0.0000000E+00 -5.9808612E-02
vertex -2.6315789E+00 -1.2700000E-01 -5.9808612E-02
vertex -2.3684211E+00 -1.2700000E-01 -4.8444975E-02
endloop
endfacet
facet normal -2.0253205E-01 0.0000000E+00 9.7927564E-01
outer loop
vertex -1.2105263E+01 -0.0000000E+00 -1.2655503E+00
vertex -1.1842105E+01 -0.0000000E+00 -1.2111244E+00
vertex -1.2105263E+01 1.2700000E-01 -1.2655503E+00
endloop
endfacet
facet normal -1.8104872E-01 0.0000000E+00 9.8347414E-01
outer loop
vertex -1.0526316E+01 -0.0000000E+00 -9.5693779E-01
vertex -1.0789474E+01 1.2700000E-01 -1.0053828E+00
vertex -1.0789474E+01 -0.0000000E+00 -1.0053828E+00
endloop
endfacet
facet normal 2.1104550E-01 0.0000000E+00 9.7747624E-01
outer loop
vertex 1.2368421E+01 1.2700000E-01 -1.3211722E+00
vertex 1.2368421E+01 -0.0000000E+00 -1.3211722E+00
vertex 1.2631579E+01 -0.0000000E+00 -1.3779905E+00
endloop
endfacet
facet normal -2.0679480E-01 0.0000000E+00 9.7838432E-01
outer loop
vertex -1.2368421E+01 1.2700000E-01 -1.3211722E+00
vertex -1.2368421E+01 -0.0000000E+00 -1.3211722E+00
vertex -1.2105263E+01 -0.0000000E+00 -1.2655503E+00
endloop
endfacet
facet normal -1.9825773E-01 0.0000000E+00 9.8014992E-01
outer loop
vertex -1.1842105E+01 -0.0000000E+00 -1.2111244E+00
vertex -1.1578947E+01 -0.0000000E+00 -1.1578947E+00
vertex -1.1842105E+01 1.2700000E-01 -1.2111244E+00
endloop
endfacet
facet normal -1.8536714E-01 0.0000000E+00 9.8266935E-01
outer loop
vertex -1.1052631E+01 -0.0000000E+00 -1.0550239E+00
vertex -1.1052631E+01 -1.2700000E-01 -1.0550239E+00
vertex -1.0789474E+01 -1.2700000E-01 -1.0053828E+00
endloop
endfacet
facet normal -1.9825773E-01 0.0000000E+00 9.8014992E-01
outer loop
vertex -1.1578947E+01 -0.0000000E+00 -1.1578947E+00
vertex -1.1842105E+01 -0.0000000E+00 -1.2111244E+00
vertex -1.1578947E+01 -1.2700000E-01 -1.1578947E+00
endloop
endfacet
facet normal 1.1959007E-01 0.0000000E+00 9.9282330E-01
outer loop
vertex 7.1052632E+00 1.2700000E-01 -4.3600479E-01
vertex 6.8421054E+00 1.2700000E-01 -4.0430623E-01
vertex 7.1052632E+00 -0.0000000E+00 -4.3600479E-01
endloop
endfacet
facet normal -1.8104872E-01 0.0000000E+00 9.8347414E-01
outer loop
vertex -1.0789474E+01 -0.0000000E+00 -1.0053828E+00
vertex -1.0526316E+01 -1.2700000E-01 -9.5693779E-01
vertex -1.0526316E+01 -0.0000000E+00 -9.5693779E-01
endloop
endfacet
facet normal -1.4173616E-01 0.0000000E+00 9.8990452E-01
outer loop
vertex -8.1578951E+00 -0.0000000E+00 -5.7476079E-01
vertex -8.1578951E+00 1.2700000E-01 -5.7476079E-01
vertex -8.4210529E+00 1.2700000E-01 -6.1244017E-01
endloop
endfacet
facet normal -9.7263940E-02 0.0000000E+00 9.9525869E-01
outer loop
vertex -5.7894735E+00 -1.2700000E-01 -2.8947368E-01
vertex -5.5263157E+00 -1.2700000E-01 -2.6375598E-01
vertex -5.7894735E+00 -0.0000000E+00 -2.8947368E-01
endloop
endfacet
facet normal -4.3141626E-02 0.0000000E+00 9.9906898E-01
outer loop
vertex -2.6315789E+00 1.2700000E-01 -5.9808612E-02
vertex -2.6315789E+00 -0.0000000E+00 -5.9808612E-02
vertex -2.3684211E+00 -0.0000000E+00 -4.8444975E-02
endloop
endfacet
facet normal -6.8180235E-03 0.0000000E+00 9.9997681E-01
outer loop
vertex -2.6315790E-01 -0.0000000E+00 -5.9808610E-04
vertex -2.6315790E-01 1.2700000E-01 -5.9808610E-04
vertex -5.2631581E-01 1.2700000E-01 -2.3923444E-03
endloop
endfacet
facet normal 6.5766409E-02 0.0000000E+00 9.9783498E-01
outer loop
vertex 3.9473684E+00 1.2700000E-01 -1.3456938E-01
vertex 3.6842105E+00 1.2700000E-01 -1.1722488E-01
vertex 3.9473684E+00 -0.0000000E+00 -1.3456938E-01
endloop
endfacet
facet normal 1.8967487E-01 -0.0000000E+00 9.8184699E-01
outer loop
vertex 1.1315789E+01 -0.0000000E+00 -1.1058612E+00
vertex 1.1315789E+01 1.2700000E-01 -1.1058612E+00
vertex 1.1052631E+01 1.2700000E-01 -1.0550239E+00
endloop
endfacet
facet normal 1.3290146E-01 0.0000000E+00 9.9112928E-01
outer loop
vertex 7.8947368E+00 -0.0000000E+00 -5.3827751E-01
vertex 7.6315789E+00 1.2700000E-01 -5.0299042E-01
vertex 7.6315789E+00 -0.0000000E+00 -5.0299042E-01
endloop
endfacet
facet normal 2.0679480E-01 -0.0000000E+00 9.7838432E-01
outer loop
vertex 1.2368421E+01 -1.2700000E-01 -1.3211722E+00
vertex 1.2368421E+01 -0.0000000E+00 -1.3211722E+00
vertex 1.2105263E+01 -0.0000000E+00 -1.2655503E+00
endloop
endfacet
facet normal 1.2847196E-01 0.0000000E+00 9.9171311E-01
outer loop
vertex 7.6315789E+00 1.2700000E-01 -5.0299042E-01
vertex 7.3684211E+00 1.2700000E-01 -4.6889952E-01
vertex 7.6315789E+00 -0.0000000E+00 -5.0299042E-01
endloop
endfacet
facet normal 2.0679480E-01 -0.0000000E+00 9.7838432E-01
outer loop
vertex 1.2105263E+01 -0.0000000E+00 -1.2655503E+00
vertex 1.2368421E+01 -0.0000000E+00 -1.3211722E+00
vertex 1.2105263E+01 1.2700000E-01 -1.2655503E+00
endloop
endfacet
facet normal 2.1528491E-01 -0.0000000E+00 9.7655129E-01
outer loop
vertex 1.2894737E+01 -1.2700000E-01 -1.4360048E+00
vertex 1.2894737E+01 -0.0000000E+00 -1.4360048E+00
vertex 1.2631579E+01 -0.0000000E+00 -1.3779905E+00
endloop
endfacet
facet normal -2.2372690E-01 0.0000000E+00 9.7465187E-01
outer loop
vertex -1.3157895E+01 -1.2700000E-01 -1.4952153E+00
vertex -1.3157895E+01 -0.0000000E+00 -1.4952153E+00
vertex -1.3421053E+01 -0.0000000E+00 -1.5556220E+00
endloop
endfacet
facet normal -1.3732289E-01 0.0000000E+00 9.9052638E-01
outer loop
vertex -7.8947368E+00 -1.2700000E-01 -5.3827751E-01
vertex -7.8947368E+00 -0.0000000E+00 -5.3827751E-01
vertex -8.1578951E+00 -0.0000000E+00 -5.7476079E-01
endloop
endfacet
facet normal -3.8607568E-02 0.0000000E+00 9.9925441E-01
outer loop
vertex -2.1052632E+00 -0.0000000E+00 -3.8277511E-02
vertex -2.1052632E+00 1.2700000E-01 -3.8277511E-02
vertex -2.3684211E+00 1.2700000E-01 -4.8444975E-02
endloop
endfacet
facet normal -4.3141626E-02 0.0000000E+00 9.9906898E-01
outer loop
vertex -2.3684211E+00 -0.0000000E+00 -4.8444975E-02
vertex -2.3684211E+00 1.2700000E-01 -4.8444975E-02
vertex -2.6315789E+00 1.2700000E-01 -5.9808612E-02
endloop
endfacet
facet normal -1.1362904E-02 0.0000000E+00 9.9993545E-01
outer loop
vertex -5.2631581E-01 -0.0000000E+00 -2.3923444E-03
vertex -7.8947371E-01 -0.0000000E+00 -5.3827753E-03
vertex -5.2631581E-01 -1.2700000E-01 -2.3923444E-03
endloop
endfacet
facet normal -4.7673017E-02 0.0000000E+00 9.9886304E-01
outer loop
vertex -2.8947368E+00 1.2700000E-01 -7.2368421E-02
vertex -2.8947368E+00 -0.0000000E+00 -7.2368421E-02
vertex -2.6315789E+00 -0.0000000E+00 -5.9808612E-02
endloop
endfacet
facet normal -4.7673017E-02 0.0000000E+00 9.9886304E-01
outer loop
vertex -2.8947368E+00 -0.0000000E+00 -7.2368421E-02
vertex -2.8947368E+00 -1.2700000E-01 -7.2368421E-02
vertex -2.6315789E+00 -1.2700000E-01 -5.9808612E-02
endloop
endfacet
facet normal -3.4071103E-02 0.0000000E+00 9.9941939E-01
outer loop
vertex -1.8421053E+00 -1.2700000E-01 -2.9306220E-02
vertex -1.8421053E+00 -0.0000000E+00 -2.9306220E-02
vertex -2.1052632E+00 -0.0000000E+00 -3.8277511E-02
endloop
endfacet
facet normal -6.8180235E-03 0.0000000E+00 9.9997681E-01
outer loop
vertex -2.6315790E-01 -0.0000000E+00 -5.9808610E-04
vertex -5.2631581E-01 -0.0000000E+00 -2.3923444E-03
vertex -2.6315790E-01 -1.2700000E-01 -5.9808610E-04
endloop
endfacet
facet normal -2.2372690E-01 0.0000000E+00 9.7465187E-01
outer loop
vertex -1.3421053E+01 -0.0000000E+00 -1.5556220E+00
vertex -1.3157895E+01 -0.0000000E+00 -1.4952153E+00
vertex -1.3421053E+01 1.2700000E-01 -1.5556220E+00
endloop
endfacet
facet normal -1.9397208E-01 0.0000000E+00 9.8100704E-01
outer loop
vertex -1.1315789E+01 -1.2700000E-01 -1.1058612E+00
vertex -1.1578947E+01 -0.0000000E+00 -1.1578947E+00
vertex -1.1578947E+01 -1.2700000E-01 -1.1578947E+00
endloop
endfacet
facet normal -1.5492502E-01 0.0000000E+00 9.8792624E-01
outer loop
vertex -9.2105265E+00 -0.0000000E+00 -7.3265553E-01
vertex -8.9473686E+00 -1.2700000E-01 -6.9138753E-01
vertex -8.9473686E+00 -0.0000000E+00 -6.9138753E-01
endloop
endfacet
facet normal -1.4173616E-01 0.0000000E+00 9.8990452E-01
outer loop
vertex -8.1578951E+00 -1.2700000E-01 -5.7476079E-01
vertex -8.1578951E+00 -0.0000000E+00 -5.7476079E-01
vertex -8.4210529E+00 -0.0000000E+00 -6.1244017E-01
endloop
endfacet
facet normal -1.1959007E-01 0.0000000E+00 9.9282330E-01
outer loop
vertex -6.8421054E+00 -0.0000000E+00 -4.0430623E-01
vertex -6.8421054E+00 1.2700000E-01 -4.0430623E-01
vertex -7.1052632E+00 1.2700000E-01 -4.3600479E-01
endloop
endfacet
facet normal -2.1104550E-01 0.0000000E+00 9.7747624E-01
outer loop
vertex -1.2631579E+01 1.2700000E-01 -1.3779905E+00
vertex -1.2631579E+01 -0.0000000E+00 -1.3779905E+00
vertex -1.2368421E+01 -0.0000000E+00 -1.3211722E+00
endloop
endfacet
facet normal -1.8536714E-01 0.0000000E+00 9.8266935E-01
outer loop
vertex -1.1052631E+01 -0.0000000E+00 -1.0550239E+00
vertex -1.0789474E+01 -1.2700000E-01 -1.0053828E+00
vertex -1.0789474E+01 -0.0000000E+00 -1.0053828E+00
endloop
endfacet
facet normal -1.6803111E-01 0.0000000E+00 9.8578167E-01
outer loop
vertex -1.0000000E+01 -0.0000000E+00 -8.6363637E-01
vertex -9.7368422E+00 -0.0000000E+00 -8.1877989E-01
vertex -1.0000000E+01 1.2700000E-01 -8.6363637E-01
endloop
endfacet
facet normal -1.8104872E-01 0.0000000E+00 9.8347414E-01
outer loop
vertex -1.0789474E+01 -0.0000000E+00 -1.0053828E+00
vertex -1.0789474E+01 -1.2700000E-01 -1.0053828E+00
vertex -1.0526316E+01 -1.2700000E-01 -9.5693779E-01
endloop
endfacet
facet normal -1.4614141E-01 0.0000000E+00 9.8926371E-01
outer loop
vertex -8.6842108E+00 -0.0000000E+00 -6.5131581E-01
vertex -8.4210529E+00 -0.0000000E+00 -6.1244017E-01
vertex -8.6842108E+00 1.2700000E-01 -6.5131581E-01
endloop
endfacet
facet normal -2.1951228E-01 0.0000000E+00 9.7560972E-01
outer loop
vertex -1.3157895E+01 -0.0000000E+00 -1.4952153E+00
vertex -1.2894737E+01 -0.0000000E+00 -1.4360048E+00
vertex -1.3157895E+01 1.2700000E-01 -1.4952153E+00
endloop
endfacet
facet normal -2.0679480E-01 0.0000000E+00 9.7838432E-01
outer loop
vertex -1.2368421E+01 -0.0000000E+00 -1.3211722E+00
vertex -1.2368421E+01 -1.2700000E-01 -1.3211722E+00
vertex -1.2105263E+01 -1.2700000E-01 -1.2655503E+00
endloop
endfacet
facet normal -1.2847196E-01 0.0000000E+00 9.9171311E-01
outer loop
vertex -7.3684211E+00 -1.2700000E-01 -4.6889952E-01
vertex -7.6315789E+00 -0.0000000E+00 -5.0299042E-01
vertex -7.6315789E+00 -1.2700000E-01 -5.0299042E-01
endloop
endfacet
facet normal -1.1513832E-01 0.0000000E+00 9.9334949E-01
outer loop
vertex -6.5789475E+00 1.2700000E-01 -3.7380382E-01
vertex -6.8421054E+00 1.2700000E-01 -4.0430623E-01
vertex -6.5789475E+00 -0.0000000E+00 -3.7380382E-01
endloop
endfacet
facet normal -1.1067939E-01 0.0000000E+00 9.9385613E-01
outer loop
vertex -6.5789475E+00 -1.2700000E-01 -3.7380382E-01
vertex -6.3157897E+00 -1.2700000E-01 -3.4449762E-01
vertex -6.5789475E+00 -0.0000000E+00 -3.7380382E-01
endloop
endfacet
facet normal -7.9295009E-02 0.0000000E+00 9.9685121E-01
outer loop
vertex -4.4736843E+00 -0.0000000E+00 -1.7284688E-01
vertex -4.7368422E+00 -0.0000000E+00 -1.9377990E-01
vertex -4.4736843E+00 -1.2700000E-01 -1.7284688E-01
endloop
endfacet
facet normal -7.4789964E-02 0.0000000E+00 9.9719924E-01
outer loop
vertex -4.2105265E+00 -0.0000000E+00 -1.5311004E-01
vertex -4.4736843E+00 1.2700000E-01 -1.7284688E-01
vertex -4.4736843E+00 -0.0000000E+00 -1.7284688E-01
endloop
endfacet
facet normal -2.9532569E-02 0.0000000E+00 9.9956375E-01
outer loop
vertex -1.8421053E+00 -0.0000000E+00 -2.9306220E-02
vertex -1.5789474E+00 -1.2700000E-01 -2.1531101E-02
vertex -1.5789474E+00 -0.0000000E+00 -2.1531101E-02
endloop
endfacet
facet normal -2.9532569E-02 0.0000000E+00 9.9956375E-01
outer loop
vertex -1.8421053E+00 -0.0000000E+00 -2.9306220E-02
vertex -1.8421053E+00 -1.2700000E-01 -2.9306220E-02
vertex -1.5789474E+00 -1.2700000E-01 -2.1531101E-02
endloop
endfacet
facet normal -7.4789964E-02 0.0000000E+00 9.9719924E-01
outer loop
vertex -4.2105265E+00 -0.0000000E+00 -1.5311004E-01
vertex -4.4736843E+00 -0.0000000E+00 -1.7284688E-01
vertex -4.2105265E+00 -1.2700000E-01 -1.5311004E-01
endloop
endfacet
facet normal -7.9295009E-02 0.0000000E+00 9.9685121E-01
outer loop
vertex -4.7368422E+00 -0.0000000E+00 -1.9377990E-01
vertex -4.7368422E+00 -1.2700000E-01 -1.9377990E-01
vertex -4.4736843E+00 -1.2700000E-01 -1.7284688E-01
endloop
endfacet
facet normal -6.5766409E-02 0.0000000E+00 9.9783498E-01
outer loop
vertex -3.6842105E+00 -0.0000000E+00 -1.1722488E-01
vertex -3.9473684E+00 -0.0000000E+00 -1.3456938E-01
vertex -3.6842105E+00 -1.2700000E-01 -1.1722488E-01
endloop
endfacet
facet normal -3.8607568E-02 0.0000000E+00 9.9925441E-01
outer loop
vertex -2.3684211E+00 -0.0000000E+00 -4.8444975E-02
vertex -2.1052632E+00 -1.2700000E-01 -3.8277511E-02
vertex -2.1052632E+00 -0.0000000E+00 -3.8277511E-02
endloop
endfacet
facet normal -6.5766409E-02 0.0000000E+00 9.9783498E-01
outer loop
vertex -3.9473684E+00 -0.0000000E+00 -1.3456938E-01
vertex -3.9473684E+00 -1.2700000E-01 -1.3456938E-01
vertex -3.6842105E+00 -1.2700000E-01 -1.1722488E-01
endloop
endfacet
facet normal -7.4789964E-02 0.0000000E+00 9.9719924E-01
outer loop
vertex -4.2105265E+00 -1.2700000E-01 -1.5311004E-01
vertex -4.4736843E+00 -0.0000000E+00 -1.7284688E-01
vertex -4.4736843E+00 -1.2700000E-01 -1.7284688E-01
endloop
endfacet
facet normal -1.5907075E-02 0.0000000E+00 9.9987352E-01
outer loop
vertex -1.0526316E+00 -0.0000000E+00 -9.5693776E-03
vertex -7.8947371E-01 -0.0000000E+00 -5.3827753E-03
vertex -1.0526316E+00 1.2700000E-01 -9.5693776E-03
endloop
endfacet
facet normal -1.1362904E-02 0.0000000E+00 9.9993545E-01
outer loop
vertex -7.8947371E-01 -1.2700000E-01 -5.3827753E-03
vertex -5.2631581E-01 -1.2700000E-01 -2.3923444E-03
vertex -7.8947371E-01 -0.0000000E+00 -5.3827753E-03
endloop
endfacet
facet normal 2.0450274E-02 0.0000000E+00 9.9979091E-01
outer loop
vertex 1.0526316E+00 -0.0000000E+00 -9.5693776E-03
vertex 1.3157895E+00 -1.2700000E-01 -1.4952153E-02
vertex 1.3157895E+00 -0.0000000E+00 -1.4952153E-02
endloop
endfacet
facet normal 5.6726702E-02 0.0000000E+00 9.9838972E-01
outer loop
vertex 3.1578948E+00 1.2700000E-01 -8.6124405E-02
vertex 3.4210527E+00 -0.0000000E+00 -1.0107656E-01
vertex 3.4210527E+00 1.2700000E-01 -1.0107656E-01
endloop
endfacet
facet normal 1.3290146E-01 0.0000000E+00 9.9112928E-01
outer loop
vertex 7.6315789E+00 -0.0000000E+00 -5.0299042E-01
vertex 7.8947368E+00 -1.2700000E-01 -5.3827751E-01
vertex 7.8947368E+00 -0.0000000E+00 -5.3827751E-01
endloop
endfacet
facet normal 7.0280269E-02 0.0000000E+00 9.9752736E-01
outer loop
vertex 3.9473684E+00 -0.0000000E+00 -1.3456938E-01
vertex 4.2105265E+00 -1.2700000E-01 -1.5311004E-01
vertex 4.2105265E+00 -0.0000000E+00 -1.5311004E-01
endloop
endfacet
facet normal 9.2779912E-02 0.0000000E+00 9.9568671E-01
outer loop
vertex 5.2631578E+00 1.2700000E-01 -2.3923445E-01
vertex 5.5263157E+00 -0.0000000E+00 -2.6375598E-01
vertex 5.5263157E+00 1.2700000E-01 -2.6375598E-01
endloop
endfacet
facet normal 1.1067939E-01 0.0000000E+00 9.9385613E-01
outer loop
vertex 6.3157897E+00 -0.0000000E+00 -3.4449762E-01
vertex 6.3157897E+00 -1.2700000E-01 -3.4449762E-01
vertex 6.5789475E+00 -1.2700000E-01 -3.7380382E-01
endloop
endfacet
facet normal 1.3290146E-01 -0.0000000E+00 9.9112928E-01
outer loop
vertex 7.8947368E+00 -0.0000000E+00 -5.3827751E-01
vertex 7.8947368E+00 1.2700000E-01 -5.3827751E-01
vertex 7.6315789E+00 1.2700000E-01 -5.0299042E-01
endloop
endfacet
facet normal 1.4614141E-01 -0.0000000E+00 9.8926371E-01
outer loop
vertex 8.6842108E+00 -0.0000000E+00 -6.5131581E-01
vertex 8.6842108E+00 1.2700000E-01 -6.5131581E-01
vertex 8.4210529E+00 1.2700000E-01 -6.1244017E-01
endloop
endfacet
facet normal 1.8536714E-01 -0.0000000E+00 9.8266935E-01
outer loop
vertex 1.0789474E+01 -1.2700000E-01 -1.0053828E+00
vertex 1.1052631E+01 -1.2700000E-01 -1.0550239E+00
vertex 1.0789474E+01 -0.0000000E+00 -1.0053828E+00
endloop
endfacet
facet normal 1.4173616E-01 -0.0000000E+00 9.8990452E-01
outer loop
vertex 8.4210529E+00 -0.0000000E+00 -6.1244017E-01
vertex 8.4210529E+00 1.2700000E-01 -6.1244017E-01
vertex 8.1578951E+00 1.2700000E-01 -5.7476079E-01
endloop
endfacet
facet normal 1.7671958E-01 0.0000000E+00 9.8426127E-01
outer loop
vertex 1.0263158E+01 1.2700000E-01 -9.0968901E-01
vertex 1.0263158E+01 -0.0000000E+00 -9.0968901E-01
vertex 1.0526316E+01 -0.0000000E+00 -9.5693779E-01
endloop
endfacet
facet normal 1.0174206E-01 0.0000000E+00 9.9481082E-01
outer loop
vertex 6.0526314E+00 1.2700000E-01 -3.1638756E-01
vertex 5.7894735E+00 1.2700000E-01 -2.8947368E-01
vertex 6.0526314E+00 -0.0000000E+00 -3.1638756E-01
endloop
endfacet
facet normal 8.8290215E-02 -0.0000000E+00 9.9609476E-01
outer loop
vertex 5.2631578E+00 -1.2700000E-01 -2.3923445E-01
vertex 5.2631578E+00 -0.0000000E+00 -2.3923445E-01
vertex 5.0000000E+00 -0.0000000E+00 -2.1590909E-01
endloop
endfacet
facet normal 1.8967487E-01 0.0000000E+00 9.8184699E-01
outer loop
vertex 1.1315789E+01 -0.0000000E+00 -1.1058612E+00
vertex 1.1052631E+01 1.2700000E-01 -1.0550239E+00
vertex 1.1052631E+01 -0.0000000E+00 -1.0550239E+00
endloop
endfacet
facet normal 2.1104550E-01 -0.0000000E+00 9.7747624E-01
outer loop
vertex 1.2631579E+01 -1.2700000E-01 -1.3779905E+00
vertex 1.2631579E+01 -0.0000000E+00 -1.3779905E+00
vertex 1.2368421E+01 -0.0000000E+00 -1.3211722E+00
endloop
endfacet
facet normal 2.1528491E-01 -0.0000000E+00 9.7655129E-01
outer loop
vertex 1.2631579E+01 -1.2700000E-01 -1.3779905E+00
vertex 1.2894737E+01 -1.2700000E-01 -1.4360048E+00
vertex 1.2631579E+01 -0.0000000E+00 -1.3779905E+00
endloop
endfacet
facet normal -2.2727211E-03 0.0000000E+00 9.9999744E-01
outer loop
vertex -0.0000000E+00 -1.2700000E-01 0.0000000E+00
vertex -2.6315790E-01 -0.0000000E+00 -5.9808610E-04
vertex -2.6315790E-01 -1.2700000E-01 -5.9808610E-04
endloop
endfacet
facet normal -2.2727211E-03 0.0000000E+00 9.9999744E-01
outer loop
vertex -0.0000000E+00 -1.2700000E-01 0.0000000E+00
vertex -0.0000000E+00 -0.0000000E+00 0.0000000E+00
vertex -2.6315790E-01 -0.0000000E+00 -5.9808610E-04
endloop
endfacet
facet normal 6.8180235E-03 0.0000000E+00 9.9997681E-01
outer loop
vertex 2.6315790E-01 1.2700000E-01 -5.9808610E-04
vertex 5.2631581E-01 -0.0000000E+00 -2.3923444E-03
vertex 5.2631581E-01 1.2700000E-01 -2.3923444E-03
endloop
endfacet
facet normal 1.1362904E-02 0.0000000E+00 9.9993545E-01
outer loop
vertex 5.2631581E-01 -0.0000000E+00 -2.3923444E-03
vertex 5.2631581E-01 -1.2700000E-01 -2.3923444E-03
vertex 7.8947371E-01 -1.2700000E-01 -5.3827753E-03
endloop
endfacet
facet normal 1.1362904E-02 -0.0000000E+00 9.9993545E-01
outer loop
vertex 5.2631581E-01 -0.0000000E+00 -2.3923444E-03
vertex 7.8947371E-01 -0.0000000E+00 -5.3827753E-03
vertex 5.2631581E-01 1.2700000E-01 -2.3923444E-03
endloop
endfacet
facet normal 3.8607568E-02 0.0000000E+00 9.9925441E-01
outer loop
vertex 2.1052632E+00 1.2700000E-01 -3.8277511E-02
vertex 2.1052632E+00 -0.0000000E+00 -3.8277511E-02
vertex 2.3684211E+00 -0.0000000E+00 -4.8444975E-02
endloop
endfacet
facet normal 2.0450274E-02 0.0000000E+00 9.9979091E-01
outer loop
vertex 1.3157895E+00 -0.0000000E+00 -1.4952153E-02
vertex 1.0526316E+00 1.2700000E-01 -9.5693776E-03
vertex 1.0526316E+00 -0.0000000E+00 -9.5693776E-03
endloop
endfacet
facet normal 3.4071103E-02 0.0000000E+00 9.9941939E-01
outer loop
vertex 2.1052632E+00 -0.0000000E+00 -3.8277511E-02
vertex 1.8421053E+00 -0.0000000E+00 -2.9306220E-02
vertex 2.1052632E+00 -1.2700000E-01 -3.8277511E-02
endloop
endfacet
facet normal 1.4614141E-01 -0.0000000E+00 9.8926371E-01
outer loop
vertex 8.4210529E+00 -0.0000000E+00 -6.1244017E-01
vertex 8.6842108E+00 -0.0000000E+00 -6.5131581E-01
vertex 8.4210529E+00 1.2700000E-01 -6.1244017E-01
endloop
endfacet
facet normal 1.5492502E-01 -0.0000000E+00 9.8792624E-01
outer loop
vertex 9.2105265E+00 -0.0000000E+00 -7.3265553E-01
vertex 9.2105265E+00 1.2700000E-01 -7.3265553E-01
vertex 8.9473686E+00 1.2700000E-01 -6.9138753E-01
endloop
endfacet
facet normal 1.7238037E-01 0.0000000E+00 9.8503041E-01
outer loop
vertex 1.0263158E+01 -0.0000000E+00 -9.0968901E-01
vertex 1.0000000E+01 1.2700000E-01 -8.6363637E-01
vertex 1.0000000E+01 -0.0000000E+00 -8.6363637E-01
endloop
endfacet
facet normal 1.5930286E-01 0.0000000E+00 9.8722970E-01
outer loop
vertex 9.4736843E+00 -1.2700000E-01 -7.7511960E-01
vertex 9.2105265E+00 -0.0000000E+00 -7.3265553E-01
vertex 9.2105265E+00 -1.2700000E-01 -7.3265553E-01
endloop
endfacet
facet normal 2.1104550E-01 0.0000000E+00 9.7747624E-01
outer loop
vertex 1.2631579E+01 -1.2700000E-01 -1.3779905E+00
vertex 1.2368421E+01 -0.0000000E+00 -1.3211722E+00
vertex 1.2368421E+01 -1.2700000E-01 -1.3211722E+00
endloop
endfacet
facet normal 2.1528491E-01 -0.0000000E+00 9.7655129E-01
outer loop
vertex 1.2894737E+01 -0.0000000E+00 -1.4360048E+00
vertex 1.2894737E+01 1.2700000E-01 -1.4360048E+00
vertex 1.2631579E+01 1.2700000E-01 -1.3779905E+00
endloop
endfacet
facet normal -2.1104550E-01 0.0000000E+00 9.7747624E-01
outer loop
vertex -1.2368421E+01 -1.2700000E-01 -1.3211722E+00
vertex -1.2368421E+01 -0.0000000E+00 -1.3211722E+00
vertex -1.2631579E+01 -0.0000000E+00 -1.3779905E+00
endloop
endfacet
facet normal -1.9825773E-01 0.0000000E+00 9.8014992E-01
outer loop
vertex -1.1578947E+01 -1.2700000E-01 -1.1578947E+00
vertex -1.1842105E+01 -0.0000000E+00 -1.2111244E+00
vertex -1.1842105E+01 -1.2700000E-01 -1.2111244E+00
endloop
endfacet
facet normal -1.6803111E-01 0.0000000E+00 9.8578167E-01
outer loop
vertex -1.0000000E+01 -1.2700000E-01 -8.6363637E-01
vertex -9.7368422E+00 -1.2700000E-01 -8.1877989E-01
vertex -1.0000000E+01 -0.0000000E+00 -8.6363637E-01
endloop
endfacet
facet normal -2.1951228E-01 0.0000000E+00 9.7560972E-01
outer loop
vertex -1.2894737E+01 -1.2700000E-01 -1.4360048E+00
vertex -1.3157895E+01 -0.0000000E+00 -1.4952153E+00
vertex -1.3157895E+01 -1.2700000E-01 -1.4952153E+00
endloop
endfacet
facet normal -2.1528491E-01 0.0000000E+00 9.7655129E-01
outer loop
vertex -1.2631579E+01 -1.2700000E-01 -1.3779905E+00
vertex -1.2631579E+01 -0.0000000E+00 -1.3779905E+00
vertex -1.2894737E+01 -0.0000000E+00 -1.4360048E+00
endloop
endfacet
facet normal -2.0679480E-01 0.0000000E+00 9.7838432E-01
outer loop
vertex -1.2105263E+01 -1.2700000E-01 -1.2655503E+00
vertex -1.2105263E+01 -0.0000000E+00 -1.2655503E+00
vertex -1.2368421E+01 -0.0000000E+00 -1.3211722E+00
endloop
endfacet
facet normal -1.5053734E-01 0.0000000E+00 9.8860437E-01
outer loop
vertex -8.9473686E+00 1.2700000E-01 -6.9138753E-01
vertex -8.9473686E+00 -0.0000000E+00 -6.9138753E-01
vertex -8.6842108E+00 -0.0000000E+00 -6.5131581E-01
endloop
endfacet
facet normal -1.5492502E-01 0.0000000E+00 9.8792624E-01
outer loop
vertex -9.2105265E+00 -1.2700000E-01 -7.3265553E-01
vertex -8.9473686E+00 -1.2700000E-01 -6.9138753E-01
vertex -9.2105265E+00 -0.0000000E+00 -7.3265553E-01
endloop
endfacet
facet normal -1.2847196E-01 0.0000000E+00 9.9171311E-01
outer loop
vertex -7.6315789E+00 1.2700000E-01 -5.0299042E-01
vertex -7.3684211E+00 -0.0000000E+00 -4.6889952E-01
vertex -7.3684211E+00 1.2700000E-01 -4.6889952E-01
endloop
endfacet
facet normal -1.1513832E-01 0.0000000E+00 9.9334949E-01
outer loop
vertex -6.5789475E+00 -0.0000000E+00 -3.7380382E-01
vertex -6.8421054E+00 -0.0000000E+00 -4.0430623E-01
vertex -6.5789475E+00 -1.2700000E-01 -3.7380382E-01
endloop
endfacet
facet normal -1.7238037E-01 0.0000000E+00 9.8503041E-01
outer loop
vertex -1.0263158E+01 -0.0000000E+00 -9.0968901E-01
vertex -1.0000000E+01 -1.2700000E-01 -8.6363637E-01
vertex -1.0000000E+01 -0.0000000E+00 -8.6363637E-01
endloop
endfacet
facet normal -1.5053734E-01 0.0000000E+00 9.8860437E-01
outer loop
vertex -8.9473686E+00 -1.2700000E-01 -6.9138753E-01
vertex -8.6842108E+00 -1.2700000E-01 -6.5131581E-01
vertex -8.9473686E+00 -0.0000000E+00 -6.9138753E-01
endloop
endfacet
facet normal -1.4173616E-01 0.0000000E+00 9.8990452E-01
outer loop
vertex -8.4210529E+00 1.2700000E-01 -6.1244017E-01
vertex -8.4210529E+00 -0.0000000E+00 -6.1244017E-01
vertex -8.1578951E+00 -0.0000000E+00 -5.7476079E-01
endloop
endfacet
facet normal -7.0280269E-02 0.0000000E+00 9.9752736E-01
outer loop
vertex -3.9473684E+00 -0.0000000E+00 -1.3456938E-01
vertex -3.9473684E+00 1.2700000E-01 -1.3456938E-01
vertex -4.2105265E+00 1.2700000E-01 -1.5311004E-01
endloop
endfacet
facet normal -5.2201439E-02 0.0000000E+00 9.9863666E-01
outer loop
vertex -3.1578948E+00 -0.0000000E+00 -8.6124405E-02
vertex -3.1578948E+00 -1.2700000E-01 -8.6124405E-02
vertex -2.8947368E+00 -1.2700000E-01 -7.2368421E-02
endloop
endfacet
facet normal -4.7673017E-02 0.0000000E+00 9.9886304E-01
outer loop
vertex -2.8947368E+00 -0.0000000E+00 -7.2368421E-02
vertex -2.6315789E+00 -1.2700000E-01 -5.9808612E-02
vertex -2.6315789E+00 -0.0000000E+00 -5.9808612E-02
endloop
endfacet
facet normal -2.4992188E-02 0.0000000E+00 9.9968761E-01
outer loop
vertex -1.5789474E+00 -0.0000000E+00 -2.1531101E-02
vertex -1.3157895E+00 -1.2700000E-01 -1.4952153E-02
vertex -1.3157895E+00 -0.0000000E+00 -1.4952153E-02
endloop
endfacet
facet normal -1.5907075E-02 0.0000000E+00 9.9987352E-01
outer loop
vertex -7.8947371E-01 -1.2700000E-01 -5.3827753E-03
vertex -7.8947371E-01 -0.0000000E+00 -5.3827753E-03
vertex -1.0526316E+00 -0.0000000E+00 -9.5693776E-03
endloop
endfacet
facet normal -5.2201439E-02 0.0000000E+00 9.9863666E-01
outer loop
vertex -2.8947368E+00 -0.0000000E+00 -7.2368421E-02
vertex -3.1578948E+00 -0.0000000E+00 -8.6124405E-02
vertex -2.8947368E+00 -1.2700000E-01 -7.2368421E-02
endloop
endfacet
facet normal -2.4992188E-02 0.0000000E+00 9.9968761E-01
outer loop
vertex -1.5789474E+00 -0.0000000E+00 -2.1531101E-02
vertex -1.3157895E+00 -0.0000000E+00 -1.4952153E-02
vertex -1.5789474E+00 1.2700000E-01 -2.1531101E-02
endloop
endfacet
facet normal -2.4992188E-02 0.0000000E+00 9.9968761E-01
outer loop
vertex -1.3157895E+00 -0.0000000E+00 -1.4952153E-02
vertex -1.3157895E+00 1.2700000E-01 -1.4952153E-02
vertex -1.5789474E+00 1.2700000E-01 -2.1531101E-02
endloop
endfacet
facet normal 2.2727211E-03 -0.0000000E+00 9.9999744E-01
outer loop
vertex 2.6315790E-01 -0.0000000E+00 -5.9808610E-04
vertex 2.6315790E-01 1.2700000E-01 -5.9808610E-04
vertex -0.0000000E+00 1.2700000E-01 0.0000000E+00
endloop
endfacet
facet normal -1.0621382E-01 0.0000000E+00 9.9434334E-01
outer loop
vertex -6.0526314E+00 -0.0000000E+00 -3.1638756E-01
vertex -6.3157897E+00 -0.0000000E+00 -3.4449762E-01
vertex -6.0526314E+00 -1.2700000E-01 -3.1638756E-01
endloop
endfacet
facet normal -1.1067939E-01 0.0000000E+00 9.9385613E-01
outer loop
vertex -6.3157897E+00 -0.0000000E+00 -3.4449762E-01
vertex -6.5789475E+00 -0.0000000E+00 -3.7380382E-01
vertex -6.3157897E+00 -1.2700000E-01 -3.4449762E-01
endloop
endfacet
facet normal -1.0621382E-01 0.0000000E+00 9.9434334E-01
outer loop
vertex -6.0526314E+00 -0.0000000E+00 -3.1638756E-01
vertex -6.0526314E+00 1.2700000E-01 -3.1638756E-01
vertex -6.3157897E+00 1.2700000E-01 -3.4449762E-01
endloop
endfacet
facet normal -6.5766409E-02 0.0000000E+00 9.9783498E-01
outer loop
vertex -3.6842105E+00 -0.0000000E+00 -1.1722488E-01
vertex -3.9473684E+00 1.2700000E-01 -1.3456938E-01
vertex -3.9473684E+00 -0.0000000E+00 -1.3456938E-01
endloop
endfacet
facet normal -5.6726702E-02 0.0000000E+00 9.9838972E-01
outer loop
vertex -3.1578948E+00 -0.0000000E+00 -8.6124405E-02
vertex -3.4210527E+00 -0.0000000E+00 -1.0107656E-01
vertex -3.1578948E+00 -1.2700000E-01 -8.6124405E-02
endloop
endfacet
facet normal -6.1248425E-02 0.0000000E+00 9.9812257E-01
outer loop
vertex -3.4210527E+00 -0.0000000E+00 -1.0107656E-01
vertex -3.6842105E+00 -0.0000000E+00 -1.1722488E-01
vertex -3.4210527E+00 -1.2700000E-01 -1.0107656E-01
endloop
endfacet
facet normal -1.1959007E-01 0.0000000E+00 9.9282330E-01
outer loop
vertex -6.8421054E+00 -1.2700000E-01 -4.0430623E-01
vertex -6.8421054E+00 -0.0000000E+00 -4.0430623E-01
vertex -7.1052632E+00 -0.0000000E+00 -4.3600479E-01
endloop
endfacet
facet normal -1.0174206E-01 0.0000000E+00 9.9481082E-01
outer loop
vertex -6.0526314E+00 -0.0000000E+00 -3.1638756E-01
vertex -5.7894735E+00 -1.2700000E-01 -2.8947368E-01
vertex -5.7894735E+00 -0.0000000E+00 -2.8947368E-01
endloop
endfacet
facet normal -8.8290215E-02 0.0000000E+00 9.9609476E-01
outer loop
vertex -5.0000000E+00 -1.2700000E-01 -2.1590909E-01
vertex -5.2631578E+00 -0.0000000E+00 -2.3923445E-01
vertex -5.2631578E+00 -1.2700000E-01 -2.3923445E-01
endloop
endfacet
facet normal -8.3795197E-02 0.0000000E+00 9.9648297E-01
outer loop
vertex -4.7368422E+00 -0.0000000E+00 -1.9377990E-01
vertex -5.0000000E+00 -0.0000000E+00 -2.1590909E-01
vertex -4.7368422E+00 -1.2700000E-01 -1.9377990E-01
endloop
endfacet
facet normal -8.8290215E-02 0.0000000E+00 9.9609476E-01
outer loop
vertex -5.0000000E+00 -0.0000000E+00 -2.1590909E-01
vertex -5.2631578E+00 -0.0000000E+00 -2.3923445E-01
vertex -5.0000000E+00 -1.2700000E-01 -2.1590909E-01
endloop
endfacet
facet normal -8.3795197E-02 0.0000000E+00 9.9648297E-01
outer loop
vertex -4.7368422E+00 -1.2700000E-01 -1.9377990E-01
vertex -5.0000000E+00 -0.0000000E+00 -2.1590909E-01
vertex -5.0000000E+00 -1.2700000E-01 -2.1590909E-01
endloop
endfacet
facet normal -1.1067939E-01 0.0000000E+00 9.9385613E-01
outer loop
vertex -6.3157897E+00 -0.0000000E+00 -3.4449762E-01
vertex -6.3157897E+00 1.2700000E-01 -3.4449762E-01
vertex -6.5789475E+00 1.2700000E-01 -3.7380382E-01
endloop
endfacet
facet normal -7.0280269E-02 0.0000000E+00 9.9752736E-01
outer loop
vertex -3.9473684E+00 -1.2700000E-01 -1.3456938E-01
vertex -3.9473684E+00 -0.0000000E+00 -1.3456938E-01
vertex -4.2105265E+00 -0.0000000E+00 -1.5311004E-01
endloop
endfacet
facet normal -4.3141626E-02 0.0000000E+00 9.9906898E-01
outer loop
vertex -2.6315789E+00 -0.0000000E+00 -5.9808612E-02
vertex -2.3684211E+00 -1.2700000E-01 -4.8444975E-02
vertex -2.3684211E+00 -0.0000000E+00 -4.8444975E-02
endloop
endfacet
facet normal -5.2201439E-02 0.0000000E+00 9.9863666E-01
outer loop
vertex -3.1578948E+00 1.2700000E-01 -8.6124405E-02
vertex -3.1578948E+00 -0.0000000E+00 -8.6124405E-02
vertex -2.8947368E+00 -0.0000000E+00 -7.2368421E-02
endloop
endfacet
facet normal -5.6726702E-02 0.0000000E+00 9.9838972E-01
outer loop
vertex -3.4210527E+00 -0.0000000E+00 -1.0107656E-01
vertex -3.4210527E+00 -1.2700000E-01 -1.0107656E-01
vertex -3.1578948E+00 -1.2700000E-01 -8.6124405E-02
endloop
endfacet
facet normal -2.9532569E-02 0.0000000E+00 9.9956375E-01
outer loop
vertex -1.8421053E+00 1.2700000E-01 -2.9306220E-02
vertex -1.5789474E+00 -0.0000000E+00 -2.1531101E-02
vertex -1.5789474E+00 1.2700000E-01 -2.1531101E-02
endloop
endfacet
facet normal -2.4992188E-02 0.0000000E+00 9.9968761E-01
outer loop
vertex -1.5789474E+00 -1.2700000E-01 -2.1531101E-02
vertex -1.3157895E+00 -1.2700000E-01 -1.4952153E-02
vertex -1.5789474E+00 -0.0000000E+00 -2.1531101E-02
endloop
endfacet
facet normal -6.8180235E-03 0.0000000E+00 9.9997681E-01
outer loop
vertex -2.6315790E-01 -1.2700000E-01 -5.9808610E-04
vertex -5.2631581E-01 -0.0000000E+00 -2.3923444E-03
vertex -5.2631581E-01 -1.2700000E-01 -2.3923444E-03
endloop
endfacet
facet normal -1.5907075E-02 0.0000000E+00 9.9987352E-01
outer loop
vertex -7.8947371E-01 1.2700000E-01 -5.3827753E-03
vertex -1.0526316E+00 1.2700000E-01 -9.5693776E-03
vertex -7.8947371E-01 -0.0000000E+00 -5.3827753E-03
endloop
endfacet
facet normal -1.1513832E-01 0.0000000E+00 9.9334949E-01
outer loop
vertex -6.5789475E+00 -1.2700000E-01 -3.7380382E-01
vertex -6.8421054E+00 -0.0000000E+00 -4.0430623E-01
vertex -6.8421054E+00 -1.2700000E-01 -4.0430623E-01
endloop
endfacet
facet normal -1.1513832E-01 0.0000000E+00 9.9334949E-01
outer loop
vertex -6.5789475E+00 -0.0000000E+00 -3.7380382E-01
vertex -6.8421054E+00 1.2700000E-01 -4.0430623E-01
vertex -6.8421054E+00 -0.0000000E+00 -4.0430623E-01
endloop
endfacet
facet normal -9.2779912E-02 0.0000000E+00 9.9568671E-01
outer loop
vertex -5.2631578E+00 -1.2700000E-01 -2.3923445E-01
vertex -5.2631578E+00 -0.0000000E+00 -2.3923445E-01
vertex -5.5263157E+00 -0.0000000E+00 -2.6375598E-01
endloop
endfacet
facet normal -9.2779912E-02 0.0000000E+00 9.9568671E-01
outer loop
vertex -5.5263157E+00 -0.0000000E+00 -2.6375598E-01
vertex -5.2631578E+00 -0.0000000E+00 -2.3923445E-01
vertex -5.5263157E+00 1.2700000E-01 -2.6375598E-01
endloop
endfacet
facet normal -8.3795197E-02 0.0000000E+00 9.9648297E-01
outer loop
vertex -5.0000000E+00 -0.0000000E+00 -2.1590909E-01
vertex -4.7368422E+00 -0.0000000E+00 -1.9377990E-01
vertex -5.0000000E+00 1.2700000E-01 -2.1590909E-01
endloop
endfacet
facet normal -6.1248425E-02 0.0000000E+00 9.9812257E-01
outer loop
vertex -3.4210527E+00 -1.2700000E-01 -1.0107656E-01
vertex -3.6842105E+00 -0.0000000E+00 -1.1722488E-01
vertex -3.6842105E+00 -1.2700000E-01 -1.1722488E-01
endloop
endfacet
facet normal -6.5766409E-02 0.0000000E+00 9.9783498E-01
outer loop
vertex -3.6842105E+00 1.2700000E-01 -1.1722488E-01
vertex -3.9473684E+00 1.2700000E-01 -1.3456938E-01
vertex -3.6842105E+00 -0.0000000E+00 -1.1722488E-01
endloop
endfacet
facet normal -1.7238037E-01 0.0000000E+00 9.8503041E-01
outer loop
vertex -1.0263158E+01 1.2700000E-01 -9.0968901E-01
vertex -1.0263158E+01 -0.0000000E+00 -9.0968901E-01
vertex -1.0000000E+01 -0.0000000E+00 -8.6363637E-01
endloop
endfacet
facet normal -1.5930286E-01 0.0000000E+00 9.8722970E-01
outer loop
vertex -9.4736843E+00 -0.0000000E+00 -7.7511960E-01
vertex -9.2105265E+00 -1.2700000E-01 -7.3265553E-01
vertex -9.2105265E+00 -0.0000000E+00 -7.3265553E-01
endloop
endfacet
facet normal -1.3732289E-01 0.0000000E+00 9.9052638E-01
outer loop
vertex -7.8947368E+00 -1.2700000E-01 -5.3827751E-01
vertex -8.1578951E+00 -0.0000000E+00 -5.7476079E-01
vertex -8.1578951E+00 -1.2700000E-01 -5.7476079E-01
endloop
endfacet
facet normal -1.3732289E-01 0.0000000E+00 9.9052638E-01
outer loop
vertex -7.8947368E+00 -0.0000000E+00 -5.3827751E-01
vertex -8.1578951E+00 1.2700000E-01 -5.7476079E-01
vertex -8.1578951E+00 -0.0000000E+00 -5.7476079E-01
endloop
endfacet
facet normal -1.3290146E-01 0.0000000E+00 9.9112928E-01
outer loop
vertex -7.8947368E+00 -0.0000000E+00 -5.3827751E-01
vertex -7.6315789E+00 -0.0000000E+00 -5.0299042E-01
vertex -7.8947368E+00 1.2700000E-01 -5.3827751E-01
endloop
endfacet
facet normal -1.5930286E-01 0.0000000E+00 9.8722970E-01
outer loop
vertex -9.4736843E+00 -0.0000000E+00 -7.7511960E-01
vertex -9.4736843E+00 -1.2700000E-01 -7.7511960E-01
vertex -9.2105265E+00 -1.2700000E-01 -7.3265553E-01
endloop
endfacet
facet normal -1.4614141E-01 0.0000000E+00 9.8926371E-01
outer loop
vertex -8.4210529E+00 -1.2700000E-01 -6.1244017E-01
vertex -8.4210529E+00 -0.0000000E+00 -6.1244017E-01
vertex -8.6842108E+00 -0.0000000E+00 -6.5131581E-01
endloop
endfacet
facet normal -1.4173616E-01 0.0000000E+00 9.8990452E-01
outer loop
vertex -8.1578951E+00 -1.2700000E-01 -5.7476079E-01
vertex -8.4210529E+00 -0.0000000E+00 -6.1244017E-01
vertex -8.4210529E+00 -1.2700000E-01 -6.1244017E-01
endloop
endfacet
facet normal -1.3290146E-01 0.0000000E+00 9.9112928E-01
outer loop
vertex -7.6315789E+00 -1.2700000E-01 -5.0299042E-01
vertex -7.6315789E+00 -0.0000000E+00 -5.0299042E-01
vertex -7.8947368E+00 -0.0000000E+00 -5.3827751E-01
endloop
endfacet
facet normal -2.0253205E-01 0.0000000E+00 9.7927564E-01
outer loop
vertex -1.1842105E+01 -1.2700000E-01 -1.2111244E+00
vertex -1.1842105E+01 -0.0000000E+00 -1.2111244E+00
vertex -1.2105263E+01 -0.0000000E+00 -1.2655503E+00
endloop
endfacet
facet normal -1.9397208E-01 0.0000000E+00 9.8100704E-01
outer loop
vertex -1.1315789E+01 -0.0000000E+00 -1.1058612E+00
vertex -1.1578947E+01 -0.0000000E+00 -1.1578947E+00
vertex -1.1315789E+01 -1.2700000E-01 -1.1058612E+00
endloop
endfacet
facet normal -1.9397208E-01 0.0000000E+00 9.8100704E-01
outer loop
vertex -1.1315789E+01 -0.0000000E+00 -1.1058612E+00
vertex -1.1578947E+01 1.2700000E-01 -1.1578947E+00
vertex -1.1578947E+01 -0.0000000E+00 -1.1578947E+00
endloop
endfacet
facet normal -1.8536714E-01 0.0000000E+00 9.8266935E-01
outer loop
vertex -1.0789474E+01 1.2700000E-01 -1.0053828E+00
vertex -1.1052631E+01 1.2700000E-01 -1.0550239E+00
vertex -1.0789474E+01 -0.0000000E+00 -1.0053828E+00
endloop
endfacet
facet normal -1.7671958E-01 0.0000000E+00 9.8426127E-01
outer loop
vertex -1.0526316E+01 -1.2700000E-01 -9.5693779E-01
vertex -1.0263158E+01 -1.2700000E-01 -9.0968901E-01
vertex -1.0526316E+01 -0.0000000E+00 -9.5693779E-01
endloop
endfacet
facet normal -2.1528491E-01 0.0000000E+00 9.7655129E-01
outer loop
vertex -1.2894737E+01 -0.0000000E+00 -1.4360048E+00
vertex -1.2631579E+01 -0.0000000E+00 -1.3779905E+00
vertex -1.2894737E+01 1.2700000E-01 -1.4360048E+00
endloop
endfacet
facet normal -2.1104550E-01 0.0000000E+00 9.7747624E-01
outer loop
vertex -1.2631579E+01 -1.2700000E-01 -1.3779905E+00
vertex -1.2368421E+01 -1.2700000E-01 -1.3211722E+00
vertex -1.2631579E+01 -0.0000000E+00 -1.3779905E+00
endloop
endfacet
facet normal -2.0679480E-01 0.0000000E+00 9.7838432E-01
outer loop
vertex -1.2368421E+01 1.2700000E-01 -1.3211722E+00
vertex -1.2105263E+01 -0.0000000E+00 -1.2655503E+00
vertex -1.2105263E+01 1.2700000E-01 -1.2655503E+00
endloop
endfacet
facet normal -2.0253205E-01 0.0000000E+00 9.7927564E-01
outer loop
vertex -1.2105263E+01 -1.2700000E-01 -1.2655503E+00
vertex -1.1842105E+01 -1.2700000E-01 -1.2111244E+00
vertex -1.2105263E+01 -0.0000000E+00 -1.2655503E+00
endloop
endfacet
facet normal -1.7238037E-01 0.0000000E+00 9.8503041E-01
outer loop
vertex -1.0263158E+01 1.2700000E-01 -9.0968901E-01
vertex -1.0000000E+01 -0.0000000E+00 -8.6363637E-01
vertex -1.0000000E+01 1.2700000E-01 -8.6363637E-01
endloop
endfacet
facet normal -1.6367181E-01 0.0000000E+00 9.8651487E-01
outer loop
vertex -9.7368422E+00 -1.2700000E-01 -8.1877989E-01
vertex -9.4736843E+00 -1.2700000E-01 -7.7511960E-01
vertex -9.7368422E+00 -0.0000000E+00 -8.1877989E-01
endloop
endfacet
facet normal -1.5492502E-01 0.0000000E+00 9.8792624E-01
outer loop
vertex -8.9473686E+00 -0.0000000E+00 -6.9138753E-01
vertex -8.9473686E+00 1.2700000E-01 -6.9138753E-01
vertex -9.2105265E+00 1.2700000E-01 -7.3265553E-01
endloop
endfacet
facet normal -1.6803111E-01 0.0000000E+00 9.8578167E-01
outer loop
vertex -1.0000000E+01 -0.0000000E+00 -8.6363637E-01
vertex -9.7368422E+00 -1.2700000E-01 -8.1877989E-01
vertex -9.7368422E+00 -0.0000000E+00 -8.1877989E-01
endloop
endfacet
facet normal -2.2372690E-01 0.0000000E+00 9.7465187E-01
outer loop
vertex -1.3421053E+01 -1.2700000E-01 -1.5556220E+00
vertex -1.3157895E+01 -1.2700000E-01 -1.4952153E+00
vertex -1.3421053E+01 -0.0000000E+00 -1.5556220E+00
endloop
endfacet
facet normal -2.1951228E-01 0.0000000E+00 9.7560972E-01
outer loop
vertex -1.2894737E+01 -1.2700000E-01 -1.4360048E+00
vertex -1.2894737E+01 -0.0000000E+00 -1.4360048E+00
vertex -1.3157895E+01 -0.0000000E+00 -1.4952153E+00
endloop
endfacet
facet normal -2.1528491E-01 0.0000000E+00 9.7655129E-01
outer loop
vertex -1.2894737E+01 -1.2700000E-01 -1.4360048E+00
vertex -1.2631579E+01 -1.2700000E-01 -1.3779905E+00
vertex -1.2894737E+01 -0.0000000E+00 -1.4360048E+00
endloop
endfacet
facet normal -1.8967487E-01 0.0000000E+00 9.8184699E-01
outer loop
vertex -1.1052631E+01 -1.2700000E-01 -1.0550239E+00
vertex -1.1315789E+01 -0.0000000E+00 -1.1058612E+00
vertex -1.1315789E+01 -1.2700000E-01 -1.1058612E+00
endloop
endfacet
facet normal -2.0253205E-01 0.0000000E+00 9.7927564E-01
outer loop
vertex -1.1842105E+01 1.2700000E-01 -1.2111244E+00
vertex -1.2105263E+01 1.2700000E-01 -1.2655503E+00
vertex -1.1842105E+01 -0.0000000E+00 -1.2111244E+00
endloop
endfacet
facet normal -1.8536714E-01 0.0000000E+00 9.8266935E-01
outer loop
vertex -1.1052631E+01 1.2700000E-01 -1.0550239E+00
vertex -1.1052631E+01 -0.0000000E+00 -1.0550239E+00
vertex -1.0789474E+01 -0.0000000E+00 -1.0053828E+00
endloop
endfacet
facet normal -1.8967487E-01 0.0000000E+00 9.8184699E-01
outer loop
vertex -1.1315789E+01 -0.0000000E+00 -1.1058612E+00
vertex -1.1052631E+01 -1.2700000E-01 -1.0550239E+00
vertex -1.1052631E+01 -0.0000000E+00 -1.0550239E+00
endloop
endfacet
facet normal -1.7671958E-01 0.0000000E+00 9.8426127E-01
outer loop
vertex -1.0263158E+01 -1.2700000E-01 -9.0968901E-01
vertex -1.0263158E+01 -0.0000000E+00 -9.0968901E-01
vertex -1.0526316E+01 -0.0000000E+00 -9.5693779E-01
endloop
endfacet
facet normal -1.7238037E-01 0.0000000E+00 9.8503041E-01
outer loop
vertex -1.0263158E+01 -1.2700000E-01 -9.0968901E-01
vertex -1.0000000E+01 -1.2700000E-01 -8.6363637E-01
vertex -1.0263158E+01 -0.0000000E+00 -9.0968901E-01
endloop
endfacet
facet normal -1.5053734E-01 0.0000000E+00 9.8860437E-01
outer loop
vertex -8.6842108E+00 -1.2700000E-01 -6.5131581E-01
vertex -8.6842108E+00 -0.0000000E+00 -6.5131581E-01
vertex -8.9473686E+00 -0.0000000E+00 -6.9138753E-01
endloop
endfacet
facet normal -1.4614141E-01 0.0000000E+00 9.8926371E-01
outer loop
vertex -8.6842108E+00 -1.2700000E-01 -6.5131581E-01
vertex -8.4210529E+00 -1.2700000E-01 -6.1244017E-01
vertex -8.6842108E+00 -0.0000000E+00 -6.5131581E-01
endloop
endfacet
facet normal -1.3732289E-01 0.0000000E+00 9.9052638E-01
outer loop
vertex -8.1578951E+00 1.2700000E-01 -5.7476079E-01
vertex -7.8947368E+00 -0.0000000E+00 -5.3827751E-01
vertex -7.8947368E+00 1.2700000E-01 -5.3827751E-01
endloop
endfacet
facet normal -1.3290146E-01 0.0000000E+00 9.9112928E-01
outer loop
vertex -7.8947368E+00 -1.2700000E-01 -5.3827751E-01
vertex -7.6315789E+00 -1.2700000E-01 -5.0299042E-01
vertex -7.8947368E+00 -0.0000000E+00 -5.3827751E-01
endloop
endfacet
facet normal -1.5492502E-01 0.0000000E+00 9.8792624E-01
outer loop
vertex -9.2105265E+00 1.2700000E-01 -7.3265553E-01
vertex -9.2105265E+00 -0.0000000E+00 -7.3265553E-01
vertex -8.9473686E+00 -0.0000000E+00 -6.9138753E-01
endloop
endfacet
facet normal -1.5053734E-01 0.0000000E+00 9.8860437E-01
outer loop
vertex -8.9473686E+00 1.2700000E-01 -6.9138753E-01
vertex -8.6842108E+00 -0.0000000E+00 -6.5131581E-01
vertex -8.6842108E+00 1.2700000E-01 -6.5131581E-01
endloop
endfacet
facet normal -1.2847196E-01 0.0000000E+00 9.9171311E-01
outer loop
vertex -7.3684211E+00 -1.2700000E-01 -4.6889952E-01
vertex -7.3684211E+00 -0.0000000E+00 -4.6889952E-01
vertex -7.6315789E+00 -0.0000000E+00 -5.0299042E-01
endloop
endfacet
facet normal -1.2403474E-01 0.0000000E+00 9.9227792E-01
outer loop
vertex -7.3684211E+00 -1.2700000E-01 -4.6889952E-01
vertex -7.1052632E+00 -1.2700000E-01 -4.3600479E-01
vertex -7.3684211E+00 -0.0000000E+00 -4.6889952E-01
endloop
endfacet
facet normal -2.2372690E-01 0.0000000E+00 9.7465187E-01
outer loop
vertex -1.3421053E+01 1.2700000E-01 -1.5556220E+00
vertex -1.3157895E+01 -0.0000000E+00 -1.4952153E+00
vertex -1.3157895E+01 1.2700000E-01 -1.4952153E+00
endloop
endfacet
facet normal -1.6367181E-01 0.0000000E+00 9.8651487E-01
outer loop
vertex -9.7368422E+00 1.2700000E-01 -8.1877989E-01
vertex -9.4736843E+00 -0.0000000E+00 -7.7511960E-01
vertex -9.4736843E+00 1.2700000E-01 -7.7511960E-01
endloop
endfacet
facet normal -1.5930286E-01 0.0000000E+00 9.8722970E-01
outer loop
vertex -9.4736843E+00 1.2700000E-01 -7.7511960E-01
vertex -9.4736843E+00 -0.0000000E+00 -7.7511960E-01
vertex -9.2105265E+00 -0.0000000E+00 -7.3265553E-01
endloop
endfacet
facet normal -1.6367181E-01 0.0000000E+00 9.8651487E-01
outer loop
vertex -9.7368422E+00 -0.0000000E+00 -8.1877989E-01
vertex -9.4736843E+00 -1.2700000E-01 -7.7511960E-01
vertex -9.4736843E+00 -0.0000000E+00 -7.7511960E-01
endloop
endfacet
facet normal -1.6367181E-01 0.0000000E+00 9.8651487E-01
outer loop
vertex -9.7368422E+00 1.2700000E-01 -8.1877989E-01
vertex -9.7368422E+00 -0.0000000E+00 -8.1877989E-01
vertex -9.4736843E+00 -0.0000000E+00 -7.7511960E-01
endloop
endfacet
facet normal -1.9825773E-01 0.0000000E+00 9.8014992E-01
outer loop
vertex -1.1578947E+01 1.2700000E-01 -1.1578947E+00
vertex -1.1842105E+01 1.2700000E-01 -1.2111244E+00
vertex -1.1578947E+01 -0.0000000E+00 -1.1578947E+00
endloop
endfacet
facet normal -1.9397208E-01 0.0000000E+00 9.8100704E-01
outer loop
vertex -1.1315789E+01 1.2700000E-01 -1.1058612E+00
vertex -1.1578947E+01 1.2700000E-01 -1.1578947E+00
vertex -1.1315789E+01 -0.0000000E+00 -1.1058612E+00
endloop
endfacet
facet normal -1.8967487E-01 0.0000000E+00 9.8184699E-01
outer loop
vertex -1.1052631E+01 -0.0000000E+00 -1.0550239E+00
vertex -1.1052631E+01 1.2700000E-01 -1.0550239E+00
vertex -1.1315789E+01 1.2700000E-01 -1.1058612E+00
endloop
endfacet
facet normal -2.1951228E-01 0.0000000E+00 9.7560972E-01
outer loop
vertex -1.3157895E+01 1.2700000E-01 -1.4952153E+00
vertex -1.2894737E+01 -0.0000000E+00 -1.4360048E+00
vertex -1.2894737E+01 1.2700000E-01 -1.4360048E+00
endloop
endfacet
facet normal -2.1528491E-01 0.0000000E+00 9.7655129E-01
outer loop
vertex -1.2894737E+01 1.2700000E-01 -1.4360048E+00
vertex -1.2631579E+01 -0.0000000E+00 -1.3779905E+00
vertex -1.2631579E+01 1.2700000E-01 -1.3779905E+00
endloop
endfacet
facet normal -2.1104550E-01 0.0000000E+00 9.7747624E-01
outer loop
vertex -1.2631579E+01 1.2700000E-01 -1.3779905E+00
vertex -1.2368421E+01 -0.0000000E+00 -1.3211722E+00
vertex -1.2368421E+01 1.2700000E-01 -1.3211722E+00
endloop
endfacet
facet normal -1.8967487E-01 0.0000000E+00 9.8184699E-01
outer loop
vertex -1.1052631E+01 -0.0000000E+00 -1.0550239E+00
vertex -1.1315789E+01 1.2700000E-01 -1.1058612E+00
vertex -1.1315789E+01 -0.0000000E+00 -1.1058612E+00
endloop
endfacet
facet normal -1.8104872E-01 0.0000000E+00 9.8347414E-01
outer loop
vertex -1.0526316E+01 -0.0000000E+00 -9.5693779E-01
vertex -1.0526316E+01 1.2700000E-01 -9.5693779E-01
vertex -1.0789474E+01 1.2700000E-01 -1.0053828E+00
endloop
endfacet
facet normal -1.7671958E-01 0.0000000E+00 9.8426127E-01
outer loop
vertex -1.0526316E+01 -0.0000000E+00 -9.5693779E-01
vertex -1.0263158E+01 -0.0000000E+00 -9.0968901E-01
vertex -1.0526316E+01 1.2700000E-01 -9.5693779E-01
endloop
endfacet
facet normal -1.7671958E-01 0.0000000E+00 9.8426127E-01
outer loop
vertex -1.0526316E+01 1.2700000E-01 -9.5693779E-01
vertex -1.0263158E+01 -0.0000000E+00 -9.0968901E-01
vertex -1.0263158E+01 1.2700000E-01 -9.0968901E-01
endloop
endfacet
facet normal -1.4614141E-01 0.0000000E+00 9.8926371E-01
outer loop
vertex -8.6842108E+00 1.2700000E-01 -6.5131581E-01
vertex -8.4210529E+00 -0.0000000E+00 -6.1244017E-01
vertex -8.4210529E+00 1.2700000E-01 -6.1244017E-01
endloop
endfacet
facet normal -1.2403474E-01 0.0000000E+00 9.9227792E-01
outer loop
vertex -7.3684211E+00 -0.0000000E+00 -4.6889952E-01
vertex -7.1052632E+00 -1.2700000E-01 -4.3600479E-01
vertex -7.1052632E+00 -0.0000000E+00 -4.3600479E-01
endloop
endfacet
facet normal -1.6803111E-01 0.0000000E+00 9.8578167E-01
outer loop
vertex -1.0000000E+01 1.2700000E-01 -8.6363637E-01
vertex -9.7368422E+00 -0.0000000E+00 -8.1877989E-01
vertex -9.7368422E+00 1.2700000E-01 -8.1877989E-01
endloop
endfacet
facet normal -1.5930286E-01 0.0000000E+00 9.8722970E-01
outer loop
vertex -9.4736843E+00 1.2700000E-01 -7.7511960E-01
vertex -9.2105265E+00 -0.0000000E+00 -7.3265553E-01
vertex -9.2105265E+00 1.2700000E-01 -7.3265553E-01
endloop
endfacet
facet normal -1.3290146E-01 0.0000000E+00 9.9112928E-01
outer loop
vertex -7.6315789E+00 -0.0000000E+00 -5.0299042E-01
vertex -7.6315789E+00 1.2700000E-01 -5.0299042E-01
vertex -7.8947368E+00 1.2700000E-01 -5.3827751E-01
endloop
endfacet
facet normal -1.2847196E-01 0.0000000E+00 9.9171311E-01
outer loop
vertex -7.6315789E+00 -0.0000000E+00 -5.0299042E-01
vertex -7.3684211E+00 -0.0000000E+00 -4.6889952E-01
vertex -7.6315789E+00 1.2700000E-01 -5.0299042E-01
endloop
endfacet
facet normal -1.2403474E-01 0.0000000E+00 9.9227792E-01
outer loop
vertex -7.3684211E+00 -0.0000000E+00 -4.6889952E-01
vertex -7.1052632E+00 -0.0000000E+00 -4.3600479E-01
vertex -7.3684211E+00 1.2700000E-01 -4.6889952E-01
endloop
endfacet
facet normal -1.1959007E-01 0.0000000E+00 9.9282330E-01
outer loop
vertex -7.1052632E+00 -0.0000000E+00 -4.3600479E-01
vertex -6.8421054E+00 -0.0000000E+00 -4.0430623E-01
vertex -7.1052632E+00 1.2700000E-01 -4.3600479E-01
endloop
endfacet
facet normal -9.7263940E-02 0.0000000E+00 9.9525869E-01
outer loop
vertex -5.5263157E+00 -1.2700000E-01 -2.6375598E-01
vertex -5.5263157E+00 -0.0000000E+00 -2.6375598E-01
vertex -5.7894735E+00 -0.0000000E+00 -2.8947368E-01
endloop
endfacet
facet normal -7.9295009E-02 0.0000000E+00 9.9685121E-01
outer loop
vertex -4.7368422E+00 1.2700000E-01 -1.9377990E-01
vertex -4.4736843E+00 -0.0000000E+00 -1.7284688E-01
vertex -4.4736843E+00 1.2700000E-01 -1.7284688E-01
endloop
endfacet
facet normal -6.1248425E-02 0.0000000E+00 9.9812257E-01
outer loop
vertex -3.4210527E+00 -0.0000000E+00 -1.0107656E-01
vertex -3.6842105E+00 1.2700000E-01 -1.1722488E-01
vertex -3.6842105E+00 -0.0000000E+00 -1.1722488E-01
endloop
endfacet
facet normal -1.0174206E-01 0.0000000E+00 9.9481082E-01
outer loop
vertex -5.7894735E+00 -0.0000000E+00 -2.8947368E-01
vertex -5.7894735E+00 1.2700000E-01 -2.8947368E-01
vertex -6.0526314E+00 1.2700000E-01 -3.1638756E-01
endloop
endfacet
facet normal -9.7263940E-02 0.0000000E+00 9.9525869E-01
outer loop
vertex -5.7894735E+00 -0.0000000E+00 -2.8947368E-01
vertex -5.5263157E+00 -0.0000000E+00 -2.6375598E-01
vertex -5.7894735E+00 1.2700000E-01 -2.8947368E-01
endloop
endfacet
facet normal -8.8290215E-02 0.0000000E+00 9.9609476E-01
outer loop
vertex -5.2631578E+00 1.2700000E-01 -2.3923445E-01
vertex -5.0000000E+00 -0.0000000E+00 -2.1590909E-01
vertex -5.0000000E+00 1.2700000E-01 -2.1590909E-01
endloop
endfacet
facet normal -7.4789964E-02 0.0000000E+00 9.9719924E-01
outer loop
vertex -4.2105265E+00 -0.0000000E+00 -1.5311004E-01
vertex -4.2105265E+00 1.2700000E-01 -1.5311004E-01
vertex -4.4736843E+00 1.2700000E-01 -1.7284688E-01
endloop
endfacet
facet normal -3.4071103E-02 0.0000000E+00 9.9941939E-01
outer loop
vertex -1.8421053E+00 1.2700000E-01 -2.9306220E-02
vertex -2.1052632E+00 1.2700000E-01 -3.8277511E-02
vertex -1.8421053E+00 -0.0000000E+00 -2.9306220E-02
endloop
endfacet
facet normal -2.0450274E-02 0.0000000E+00 9.9979091E-01
outer loop
vertex -1.3157895E+00 -0.0000000E+00 -1.4952153E-02
vertex -1.0526316E+00 -0.0000000E+00 -9.5693776E-03
vertex -1.3157895E+00 1.2700000E-01 -1.4952153E-02
endloop
endfacet
facet normal -1.1362904E-02 0.0000000E+00 9.9993545E-01
outer loop
vertex -7.8947371E-01 -0.0000000E+00 -5.3827753E-03
vertex -5.2631581E-01 -0.0000000E+00 -2.3923444E-03
vertex -7.8947371E-01 1.2700000E-01 -5.3827753E-03
endloop
endfacet
facet normal -1.1362904E-02 0.0000000E+00 9.9993545E-01
outer loop
vertex -5.2631581E-01 1.2700000E-01 -2.3923444E-03
vertex -7.8947371E-01 1.2700000E-01 -5.3827753E-03
vertex -5.2631581E-01 -0.0000000E+00 -2.3923444E-03
endloop
endfacet
facet normal -5.6726702E-02 0.0000000E+00 9.9838972E-01
outer loop
vertex -3.4210527E+00 1.2700000E-01 -1.0107656E-01
vertex -3.1578948E+00 -0.0000000E+00 -8.6124405E-02
vertex -3.1578948E+00 1.2700000E-01 -8.6124405E-02
endloop
endfacet
facet normal -5.2201439E-02 0.0000000E+00 9.9863666E-01
outer loop
vertex -3.1578948E+00 1.2700000E-01 -8.6124405E-02
vertex -2.8947368E+00 -0.0000000E+00 -7.2368421E-02
vertex -2.8947368E+00 1.2700000E-01 -7.2368421E-02
endloop
endfacet
facet normal -4.7673017E-02 0.0000000E+00 9.9886304E-01
outer loop
vertex -2.8947368E+00 1.2700000E-01 -7.2368421E-02
vertex -2.6315789E+00 -0.0000000E+00 -5.9808612E-02
vertex -2.6315789E+00 1.2700000E-01 -5.9808612E-02
endloop
endfacet
facet normal -2.9532569E-02 0.0000000E+00 9.9956375E-01
outer loop
vertex -1.5789474E+00 -0.0000000E+00 -2.1531101E-02
vertex -1.8421053E+00 1.2700000E-01 -2.9306220E-02
vertex -1.8421053E+00 -0.0000000E+00 -2.9306220E-02
endloop
endfacet
facet normal -3.4071103E-02 0.0000000E+00 9.9941939E-01
outer loop
vertex -1.8421053E+00 -1.2700000E-01 -2.9306220E-02
vertex -2.1052632E+00 -0.0000000E+00 -3.8277511E-02
vertex -2.1052632E+00 -1.2700000E-01 -3.8277511E-02
endloop
endfacet
facet normal -3.4071103E-02 0.0000000E+00 9.9941939E-01
outer loop
vertex -1.8421053E+00 -0.0000000E+00 -2.9306220E-02
vertex -2.1052632E+00 1.2700000E-01 -3.8277511E-02
vertex -2.1052632E+00 -0.0000000E+00 -3.8277511E-02
endloop
endfacet
facet normal -2.0450274E-02 0.0000000E+00 9.9979091E-01
outer loop
vertex -1.0526316E+00 -1.2700000E-01 -9.5693776E-03
vertex -1.3157895E+00 -0.0000000E+00 -1.4952153E-02
vertex -1.3157895E+00 -1.2700000E-01 -1.4952153E-02
endloop
endfacet
facet normal -2.0450274E-02 0.0000000E+00 9.9979091E-01
outer loop
vertex -1.0526316E+00 -1.2700000E-01 -9.5693776E-03
vertex -1.0526316E+00 -0.0000000E+00 -9.5693776E-03
vertex -1.3157895E+00 -0.0000000E+00 -1.4952153E-02
endloop
endfacet
facet normal -6.8180235E-03 0.0000000E+00 9.9997681E-01
outer loop
vertex -2.6315790E-01 -0.0000000E+00 -5.9808610E-04
vertex -5.2631581E-01 1.2700000E-01 -2.3923444E-03
vertex -5.2631581E-01 -0.0000000E+00 -2.3923444E-03
endloop
endfacet
facet normal -1.1067939E-01 0.0000000E+00 9.9385613E-01
outer loop
vertex -6.3157897E+00 -0.0000000E+00 -3.4449762E-01
vertex -6.5789475E+00 1.2700000E-01 -3.7380382E-01
vertex -6.5789475E+00 -0.0000000E+00 -3.7380382E-01
endloop
endfacet
facet normal -1.0174206E-01 0.0000000E+00 9.9481082E-01
outer loop
vertex -5.7894735E+00 -1.2700000E-01 -2.8947368E-01
vertex -6.0526314E+00 -0.0000000E+00 -3.1638756E-01
vertex -6.0526314E+00 -1.2700000E-01 -3.1638756E-01
endloop
endfacet
facet normal -1.0174206E-01 0.0000000E+00 9.9481082E-01
outer loop
vertex -5.7894735E+00 -0.0000000E+00 -2.8947368E-01
vertex -6.0526314E+00 1.2700000E-01 -3.1638756E-01
vertex -6.0526314E+00 -0.0000000E+00 -3.1638756E-01
endloop
endfacet
facet normal -9.2779912E-02 0.0000000E+00 9.9568671E-01
outer loop
vertex -5.2631578E+00 -0.0000000E+00 -2.3923445E-01
vertex -5.2631578E+00 1.2700000E-01 -2.3923445E-01
vertex -5.5263157E+00 1.2700000E-01 -2.6375598E-01
endloop
endfacet
facet normal -8.8290215E-02 0.0000000E+00 9.9609476E-01
outer loop
vertex -5.2631578E+00 -0.0000000E+00 -2.3923445E-01
vertex -5.0000000E+00 -0.0000000E+00 -2.1590909E-01
vertex -5.2631578E+00 1.2700000E-01 -2.3923445E-01
endloop
endfacet
facet normal -3.8607568E-02 0.0000000E+00 9.9925441E-01
outer loop
vertex -2.1052632E+00 -1.2700000E-01 -3.8277511E-02
vertex -2.3684211E+00 -0.0000000E+00 -4.8444975E-02
vertex -2.3684211E+00 -1.2700000E-01 -4.8444975E-02
endloop
endfacet
facet normal -3.8607568E-02 0.0000000E+00 9.9925441E-01
outer loop
vertex -2.1052632E+00 -0.0000000E+00 -3.8277511E-02
vertex -2.3684211E+00 1.2700000E-01 -4.8444975E-02
vertex -2.3684211E+00 -0.0000000E+00 -4.8444975E-02
endloop
endfacet
facet normal -1.2403474E-01 0.0000000E+00 9.9227792E-01
outer loop
vertex -7.3684211E+00 1.2700000E-01 -4.6889952E-01
vertex -7.1052632E+00 -0.0000000E+00 -4.3600479E-01
vertex -7.1052632E+00 1.2700000E-01 -4.3600479E-01
endloop
endfacet
facet normal -1.1959007E-01 0.0000000E+00 9.9282330E-01
outer loop
vertex -7.1052632E+00 -1.2700000E-01 -4.3600479E-01
vertex -6.8421054E+00 -1.2700000E-01 -4.0430623E-01
vertex -7.1052632E+00 -0.0000000E+00 -4.3600479E-01
endloop
endfacet
facet normal -1.0621382E-01 0.0000000E+00 9.9434334E-01
outer loop
vertex -6.0526314E+00 -1.2700000E-01 -3.1638756E-01
vertex -6.3157897E+00 -0.0000000E+00 -3.4449762E-01
vertex -6.3157897E+00 -1.2700000E-01 -3.4449762E-01
endloop
endfacet
facet normal -1.0621382E-01 0.0000000E+00 9.9434334E-01
outer loop
vertex -6.0526314E+00 -0.0000000E+00 -3.1638756E-01
vertex -6.3157897E+00 1.2700000E-01 -3.4449762E-01
vertex -6.3157897E+00 -0.0000000E+00 -3.4449762E-01
endloop
endfacet
facet normal -9.7263940E-02 0.0000000E+00 9.9525869E-01
outer loop
vertex -5.7894735E+00 1.2700000E-01 -2.8947368E-01
vertex -5.5263157E+00 -0.0000000E+00 -2.6375598E-01
vertex -5.5263157E+00 1.2700000E-01 -2.6375598E-01
endloop
endfacet
facet normal -9.2779912E-02 0.0000000E+00 9.9568671E-01
outer loop
vertex -5.5263157E+00 -1.2700000E-01 -2.6375598E-01
vertex -5.2631578E+00 -1.2700000E-01 -2.3923445E-01
vertex -5.5263157E+00 -0.0000000E+00 -2.6375598E-01
endloop
endfacet
facet normal -7.9295009E-02 0.0000000E+00 9.9685121E-01
outer loop
vertex -4.7368422E+00 1.2700000E-01 -1.9377990E-01
vertex -4.7368422E+00 -0.0000000E+00 -1.9377990E-01
vertex -4.4736843E+00 -0.0000000E+00 -1.7284688E-01
endloop
endfacet
facet normal -8.3795197E-02 0.0000000E+00 9.9648297E-01
outer loop
vertex -4.7368422E+00 1.2700000E-01 -1.9377990E-01
vertex -5.0000000E+00 1.2700000E-01 -2.1590909E-01
vertex -4.7368422E+00 -0.0000000E+00 -1.9377990E-01
endloop
endfacet
facet normal -7.0280269E-02 0.0000000E+00 9.9752736E-01
outer loop
vertex -3.9473684E+00 -1.2700000E-01 -1.3456938E-01
vertex -4.2105265E+00 -0.0000000E+00 -1.5311004E-01
vertex -4.2105265E+00 -1.2700000E-01 -1.5311004E-01
endloop
endfacet
facet normal -7.0280269E-02 0.0000000E+00 9.9752736E-01
outer loop
vertex -3.9473684E+00 -0.0000000E+00 -1.3456938E-01
vertex -4.2105265E+00 1.2700000E-01 -1.5311004E-01
vertex -4.2105265E+00 -0.0000000E+00 -1.5311004E-01
endloop
endfacet
facet normal -5.6726702E-02 0.0000000E+00 9.9838972E-01
outer loop
vertex -3.4210527E+00 1.2700000E-01 -1.0107656E-01
vertex -3.4210527E+00 -0.0000000E+00 -1.0107656E-01
vertex -3.1578948E+00 -0.0000000E+00 -8.6124405E-02
endloop
endfacet
facet normal -6.1248425E-02 0.0000000E+00 9.9812257E-01
outer loop
vertex -3.4210527E+00 1.2700000E-01 -1.0107656E-01
vertex -3.6842105E+00 1.2700000E-01 -1.1722488E-01
vertex -3.4210527E+00 -0.0000000E+00 -1.0107656E-01
endloop
endfacet
facet normal -2.0450274E-02 0.0000000E+00 9.9979091E-01
outer loop
vertex -1.3157895E+00 1.2700000E-01 -1.4952153E-02
vertex -1.0526316E+00 -0.0000000E+00 -9.5693776E-03
vertex -1.0526316E+00 1.2700000E-01 -9.5693776E-03
endloop
endfacet
facet normal -1.5907075E-02 0.0000000E+00 9.9987352E-01
outer loop
vertex -1.0526316E+00 -1.2700000E-01 -9.5693776E-03
vertex -7.8947371E-01 -1.2700000E-01 -5.3827753E-03
vertex -1.0526316E+00 -0.0000000E+00 -9.5693776E-03
endloop
endfacet
facet normal -2.2727211E-03 0.0000000E+00 9.9999744E-01
outer loop
vertex -2.6315790E-01 -0.0000000E+00 -5.9808610E-04
vertex -0.0000000E+00 -0.0000000E+00 0.0000000E+00
vertex -2.6315790E-01 1.2700000E-01 -5.9808610E-04
endloop
endfacet
facet normal 2.2727211E-03 -0.0000000E+00 9.9999744E-01
outer loop
vertex -0.0000000E+00 -1.2700000E-01 0.0000000E+00
vertex 2.6315790E-01 -1.2700000E-01 -5.9808610E-04
vertex -0.0000000E+00 -0.0000000E+00 0.0000000E+00
endloop
endfacet
facet normal 2.4992188E-02 0.0000000E+00 9.9968761E-01
outer loop
vertex 1.3157895E+00 1.2700000E-01 -1.4952153E-02
vertex 1.5789474E+00 -0.0000000E+00 -2.1531101E-02
vertex 1.5789474E+00 1.2700000E-01 -2.1531101E-02
endloop
endfacet
facet normal 2.4992188E-02 0.0000000E+00 9.9968761E-01
outer loop
vertex 1.3157895E+00 -0.0000000E+00 -1.4952153E-02
vertex 1.3157895E+00 -1.2700000E-01 -1.4952153E-02
vertex 1.5789474E+00 -1.2700000E-01 -2.1531101E-02
endloop
endfacet
facet normal 2.9532569E-02 -0.0000000E+00 9.9956375E-01
outer loop
vertex 1.5789474E+00 -0.0000000E+00 -2.1531101E-02
vertex 1.8421053E+00 -0.0000000E+00 -2.9306220E-02
vertex 1.5789474E+00 1.2700000E-01 -2.1531101E-02
endloop
endfacet
facet normal 2.9532569E-02 0.0000000E+00 9.9956375E-01
outer loop
vertex 1.5789474E+00 -0.0000000E+00 -2.1531101E-02
vertex 1.5789474E+00 -1.2700000E-01 -2.1531101E-02
vertex 1.8421053E+00 -1.2700000E-01 -2.9306220E-02
endloop
endfacet
facet normal 4.3141626E-02 0.0000000E+00 9.9906898E-01
outer loop
vertex 2.6315789E+00 1.2700000E-01 -5.9808612E-02
vertex 2.3684211E+00 1.2700000E-01 -4.8444975E-02
vertex 2.6315789E+00 -0.0000000E+00 -5.9808612E-02
endloop
endfacet
facet normal 4.3141626E-02 0.0000000E+00 9.9906898E-01
outer loop
vertex 2.3684211E+00 1.2700000E-01 -4.8444975E-02
vertex 2.3684211E+00 -0.0000000E+00 -4.8444975E-02
vertex 2.6315789E+00 -0.0000000E+00 -5.9808612E-02
endloop
endfacet
facet normal 5.2201439E-02 -0.0000000E+00 9.9863666E-01
outer loop
vertex 3.1578948E+00 -0.0000000E+00 -8.6124405E-02
vertex 3.1578948E+00 1.2700000E-01 -8.6124405E-02
vertex 2.8947368E+00 1.2700000E-01 -7.2368421E-02
endloop
endfacet
facet normal 4.7673017E-02 0.0000000E+00 9.9886304E-01
outer loop
vertex 2.6315789E+00 -0.0000000E+00 -5.9808612E-02
vertex 2.6315789E+00 -1.2700000E-01 -5.9808612E-02
vertex 2.8947368E+00 -1.2700000E-01 -7.2368421E-02
endloop
endfacet
facet normal 6.5766409E-02 -0.0000000E+00 9.9783498E-01
outer loop
vertex 3.6842105E+00 -1.2700000E-01 -1.1722488E-01
vertex 3.9473684E+00 -1.2700000E-01 -1.3456938E-01
vertex 3.6842105E+00 -0.0000000E+00 -1.1722488E-01
endloop
endfacet
facet normal 1.0621382E-01 0.0000000E+00 9.9434334E-01
outer loop
vertex 6.0526314E+00 1.2700000E-01 -3.1638756E-01
vertex 6.0526314E+00 -0.0000000E+00 -3.1638756E-01
vertex 6.3157897E+00 -0.0000000E+00 -3.4449762E-01
endloop
endfacet
facet normal 9.7263940E-02 0.0000000E+00 9.9525869E-01
outer loop
vertex 5.7894735E+00 -1.2700000E-01 -2.8947368E-01
vertex 5.5263157E+00 -0.0000000E+00 -2.6375598E-01
vertex 5.5263157E+00 -1.2700000E-01 -2.6375598E-01
endloop
endfacet
facet normal 1.1513832E-01 0.0000000E+00 9.9334949E-01
outer loop
vertex 6.8421054E+00 -0.0000000E+00 -4.0430623E-01
vertex 6.5789475E+00 -0.0000000E+00 -3.7380382E-01
vertex 6.8421054E+00 -1.2700000E-01 -4.0430623E-01
endloop
endfacet
facet normal 1.0621382E-01 0.0000000E+00 9.9434334E-01
outer loop
vertex 6.3157897E+00 1.2700000E-01 -3.4449762E-01
vertex 6.0526314E+00 1.2700000E-01 -3.1638756E-01
vertex 6.3157897E+00 -0.0000000E+00 -3.4449762E-01
endloop
endfacet
facet normal 3.8607568E-02 0.0000000E+00 9.9925441E-01
outer loop
vertex 2.3684211E+00 -1.2700000E-01 -4.8444975E-02
vertex 2.1052632E+00 -0.0000000E+00 -3.8277511E-02
vertex 2.1052632E+00 -1.2700000E-01 -3.8277511E-02
endloop
endfacet
facet normal 7.9295009E-02 0.0000000E+00 9.9685121E-01
outer loop
vertex 4.4736843E+00 1.2700000E-01 -1.7284688E-01
vertex 4.7368422E+00 -0.0000000E+00 -1.9377990E-01
vertex 4.7368422E+00 1.2700000E-01 -1.9377990E-01
endloop
endfacet
facet normal 7.9295009E-02 0.0000000E+00 9.9685121E-01
outer loop
vertex 4.4736843E+00 -0.0000000E+00 -1.7284688E-01
vertex 4.7368422E+00 -1.2700000E-01 -1.9377990E-01
vertex 4.7368422E+00 -0.0000000E+00 -1.9377990E-01
endloop
endfacet
facet normal 8.8290215E-02 0.0000000E+00 9.9609476E-01
outer loop
vertex 5.2631578E+00 -0.0000000E+00 -2.3923445E-01
vertex 5.0000000E+00 1.2700000E-01 -2.1590909E-01
vertex 5.0000000E+00 -0.0000000E+00 -2.1590909E-01
endloop
endfacet
facet normal 1.5907075E-02 0.0000000E+00 9.9987352E-01
outer loop
vertex 7.8947371E-01 1.2700000E-01 -5.3827753E-03
vertex 7.8947371E-01 -0.0000000E+00 -5.3827753E-03
vertex 1.0526316E+00 -0.0000000E+00 -9.5693776E-03
endloop
endfacet
facet normal 4.7673017E-02 -0.0000000E+00 9.9886304E-01
outer loop
vertex 2.6315789E+00 -0.0000000E+00 -5.9808612E-02
vertex 2.8947368E+00 -0.0000000E+00 -7.2368421E-02
vertex 2.6315789E+00 1.2700000E-01 -5.9808612E-02
endloop
endfacet
facet normal 5.6726702E-02 -0.0000000E+00 9.9838972E-01
outer loop
vertex 3.1578948E+00 -0.0000000E+00 -8.6124405E-02
vertex 3.4210527E+00 -0.0000000E+00 -1.0107656E-01
vertex 3.1578948E+00 1.2700000E-01 -8.6124405E-02
endloop
endfacet
facet normal 6.1248425E-02 0.0000000E+00 9.9812257E-01
outer loop
vertex 3.6842105E+00 1.2700000E-01 -1.1722488E-01
vertex 3.4210527E+00 1.2700000E-01 -1.0107656E-01
vertex 3.6842105E+00 -0.0000000E+00 -1.1722488E-01
endloop
endfacet
facet normal 3.4071103E-02 -0.0000000E+00 9.9941939E-01
outer loop
vertex 1.8421053E+00 -0.0000000E+00 -2.9306220E-02
vertex 2.1052632E+00 -0.0000000E+00 -3.8277511E-02
vertex 1.8421053E+00 1.2700000E-01 -2.9306220E-02
endloop
endfacet
facet normal 2.9532569E-02 0.0000000E+00 9.9956375E-01
outer loop
vertex 1.5789474E+00 1.2700000E-01 -2.1531101E-02
vertex 1.8421053E+00 -0.0000000E+00 -2.9306220E-02
vertex 1.8421053E+00 1.2700000E-01 -2.9306220E-02
endloop
endfacet
facet normal 4.7673017E-02 0.0000000E+00 9.9886304E-01
outer loop
vertex 2.8947368E+00 1.2700000E-01 -7.2368421E-02
vertex 2.6315789E+00 1.2700000E-01 -5.9808612E-02
vertex 2.8947368E+00 -0.0000000E+00 -7.2368421E-02
endloop
endfacet
facet normal -2.2727211E-03 0.0000000E+00 9.9999744E-01
outer loop
vertex -0.0000000E+00 -0.0000000E+00 0.0000000E+00
vertex -0.0000000E+00 1.2700000E-01 0.0000000E+00
vertex -2.6315790E-01 1.2700000E-01 -5.9808610E-04
endloop
endfacet
facet normal 2.2727211E-03 -0.0000000E+00 9.9999744E-01
outer loop
vertex -0.0000000E+00 -0.0000000E+00 0.0000000E+00
vertex 2.6315790E-01 -0.0000000E+00 -5.9808610E-04
vertex -0.0000000E+00 1.2700000E-01 0.0000000E+00
endloop
endfacet
facet normal 1.1362904E-02 0.0000000E+00 9.9993545E-01
outer loop
vertex 5.2631581E-01 1.2700000E-01 -2.3923444E-03
vertex 7.8947371E-01 -0.0000000E+00 -5.3827753E-03
vertex 7.8947371E-01 1.2700000E-01 -5.3827753E-03
endloop
endfacet
facet normal 2.0450274E-02 -0.0000000E+00 9.9979091E-01
outer loop
vertex 1.3157895E+00 -0.0000000E+00 -1.4952153E-02
vertex 1.3157895E+00 1.2700000E-01 -1.4952153E-02
vertex 1.0526316E+00 1.2700000E-01 -9.5693776E-03
endloop
endfacet
facet normal 2.4992188E-02 -0.0000000E+00 9.9968761E-01
outer loop
vertex 1.3157895E+00 -0.0000000E+00 -1.4952153E-02
vertex 1.5789474E+00 -0.0000000E+00 -2.1531101E-02
vertex 1.3157895E+00 1.2700000E-01 -1.4952153E-02
endloop
endfacet
facet normal 3.4071103E-02 0.0000000E+00 9.9941939E-01
outer loop
vertex 1.8421053E+00 1.2700000E-01 -2.9306220E-02
vertex 2.1052632E+00 -0.0000000E+00 -3.8277511E-02
vertex 2.1052632E+00 1.2700000E-01 -3.8277511E-02
endloop
endfacet
facet normal 5.2201439E-02 0.0000000E+00 9.9863666E-01
outer loop
vertex 3.1578948E+00 -0.0000000E+00 -8.6124405E-02
vertex 2.8947368E+00 1.2700000E-01 -7.2368421E-02
vertex 2.8947368E+00 -0.0000000E+00 -7.2368421E-02
endloop
endfacet
facet normal 7.9295009E-02 -0.0000000E+00 9.9685121E-01
outer loop
vertex 4.4736843E+00 -0.0000000E+00 -1.7284688E-01
vertex 4.7368422E+00 -0.0000000E+00 -1.9377990E-01
vertex 4.4736843E+00 1.2700000E-01 -1.7284688E-01
endloop
endfacet
facet normal 8.3795197E-02 -0.0000000E+00 9.9648297E-01
outer loop
vertex 5.0000000E+00 -0.0000000E+00 -2.1590909E-01
vertex 5.0000000E+00 1.2700000E-01 -2.1590909E-01
vertex 4.7368422E+00 1.2700000E-01 -1.9377990E-01
endloop
endfacet
facet normal 8.8290215E-02 0.0000000E+00 9.9609476E-01
outer loop
vertex 5.0000000E+00 1.2700000E-01 -2.1590909E-01
vertex 5.2631578E+00 -0.0000000E+00 -2.3923445E-01
vertex 5.2631578E+00 1.2700000E-01 -2.3923445E-01
endloop
endfacet
facet normal 1.0174206E-01 0.0000000E+00 9.9481082E-01
outer loop
vertex 5.7894735E+00 1.2700000E-01 -2.8947368E-01
vertex 5.7894735E+00 -0.0000000E+00 -2.8947368E-01
vertex 6.0526314E+00 -0.0000000E+00 -3.1638756E-01
endloop
endfacet
facet normal 6.5766409E-02 0.0000000E+00 9.9783498E-01
outer loop
vertex 3.9473684E+00 -0.0000000E+00 -1.3456938E-01
vertex 3.6842105E+00 1.2700000E-01 -1.1722488E-01
vertex 3.6842105E+00 -0.0000000E+00 -1.1722488E-01
endloop
endfacet
facet normal 7.0280269E-02 -0.0000000E+00 9.9752736E-01
outer loop
vertex 3.9473684E+00 -0.0000000E+00 -1.3456938E-01
vertex 4.2105265E+00 -0.0000000E+00 -1.5311004E-01
vertex 3.9473684E+00 1.2700000E-01 -1.3456938E-01
endloop
endfacet
facet normal 7.4789964E-02 -0.0000000E+00 9.9719924E-01
outer loop
vertex 4.2105265E+00 -0.0000000E+00 -1.5311004E-01
vertex 4.4736843E+00 -0.0000000E+00 -1.7284688E-01
vertex 4.2105265E+00 1.2700000E-01 -1.5311004E-01
endloop
endfacet
facet normal 9.2779912E-02 0.0000000E+00 9.9568671E-01
outer loop
vertex 5.2631578E+00 1.2700000E-01 -2.3923445E-01
vertex 5.2631578E+00 -0.0000000E+00 -2.3923445E-01
vertex 5.5263157E+00 -0.0000000E+00 -2.6375598E-01
endloop
endfacet
facet normal 9.7263940E-02 0.0000000E+00 9.9525869E-01
outer loop
vertex 5.5263157E+00 1.2700000E-01 -2.6375598E-01
vertex 5.7894735E+00 -0.0000000E+00 -2.8947368E-01
vertex 5.7894735E+00 1.2700000E-01 -2.8947368E-01
endloop
endfacet
facet normal 1.3732289E-01 -0.0000000E+00 9.9052638E-01
outer loop
vertex 7.8947368E+00 -0.0000000E+00 -5.3827751E-01
vertex 8.1578951E+00 -0.0000000E+00 -5.7476079E-01
vertex 7.8947368E+00 1.2700000E-01 -5.3827751E-01
endloop
endfacet
facet normal 1.4173616E-01 -0.0000000E+00 9.8990452E-01
outer loop
vertex 8.1578951E+00 -0.0000000E+00 -5.7476079E-01
vertex 8.4210529E+00 -0.0000000E+00 -6.1244017E-01
vertex 8.1578951E+00 1.2700000E-01 -5.7476079E-01
endloop
endfacet
facet normal 1.5053734E-01 -0.0000000E+00 9.8860437E-01
outer loop
vertex 8.9473686E+00 -0.0000000E+00 -6.9138753E-01
vertex 8.9473686E+00 1.2700000E-01 -6.9138753E-01
vertex 8.6842108E+00 1.2700000E-01 -6.5131581E-01
endloop
endfacet
facet normal 1.8104872E-01 0.0000000E+00 9.8347414E-01
outer loop
vertex 1.0526316E+01 -0.0000000E+00 -9.5693779E-01
vertex 1.0526316E+01 -1.2700000E-01 -9.5693779E-01
vertex 1.0789474E+01 -1.2700000E-01 -1.0053828E+00
endloop
endfacet
facet normal 1.1513832E-01 0.0000000E+00 9.9334949E-01
outer loop
vertex 6.5789475E+00 1.2700000E-01 -3.7380382E-01
vertex 6.5789475E+00 -0.0000000E+00 -3.7380382E-01
vertex 6.8421054E+00 -0.0000000E+00 -4.0430623E-01
endloop
endfacet
facet normal 1.1959007E-01 0.0000000E+00 9.9282330E-01
outer loop
vertex 6.8421054E+00 -0.0000000E+00 -4.0430623E-01
vertex 6.8421054E+00 -1.2700000E-01 -4.0430623E-01
vertex 7.1052632E+00 -1.2700000E-01 -4.3600479E-01
endloop
endfacet
facet normal 1.6367181E-01 -0.0000000E+00 9.8651487E-01
outer loop
vertex 9.7368422E+00 -1.2700000E-01 -8.1877989E-01
vertex 9.7368422E+00 -0.0000000E+00 -8.1877989E-01
vertex 9.4736843E+00 -0.0000000E+00 -7.7511960E-01
endloop
endfacet
facet normal 1.6803111E-01 -0.0000000E+00 9.8578167E-01
outer loop
vertex 9.7368422E+00 -0.0000000E+00 -8.1877989E-01
vertex 1.0000000E+01 -0.0000000E+00 -8.6363637E-01
vertex 9.7368422E+00 1.2700000E-01 -8.1877989E-01
endloop
endfacet
facet normal 1.7238037E-01 0.0000000E+00 9.8503041E-01
outer loop
vertex 1.0000000E+01 -0.0000000E+00 -8.6363637E-01
vertex 1.0000000E+01 -1.2700000E-01 -8.6363637E-01
vertex 1.0263158E+01 -1.2700000E-01 -9.0968901E-01
endloop
endfacet
facet normal 1.8967487E-01 0.0000000E+00 9.8184699E-01
outer loop
vertex 1.1315789E+01 -0.0000000E+00 -1.1058612E+00
vertex 1.1052631E+01 -0.0000000E+00 -1.0550239E+00
vertex 1.1315789E+01 -1.2700000E-01 -1.1058612E+00
endloop
endfacet
facet normal 2.0679480E-01 -0.0000000E+00 9.7838432E-01
outer loop
vertex 1.2368421E+01 -0.0000000E+00 -1.3211722E+00
vertex 1.2368421E+01 1.2700000E-01 -1.3211722E+00
vertex 1.2105263E+01 1.2700000E-01 -1.2655503E+00
endloop
endfacet
facet normal 2.2372690E-01 -0.0000000E+00 9.7465187E-01
outer loop
vertex 1.3157895E+01 -0.0000000E+00 -1.4952153E+00
vertex 1.3421053E+01 -0.0000000E+00 -1.5556220E+00
vertex 1.3157895E+01 1.2700000E-01 -1.4952153E+00
endloop
endfacet
facet normal 1.8536714E-01 0.0000000E+00 9.8266935E-01
outer loop
vertex 1.0789474E+01 1.2700000E-01 -1.0053828E+00
vertex 1.1052631E+01 -0.0000000E+00 -1.0550239E+00
vertex 1.1052631E+01 1.2700000E-01 -1.0550239E+00
endloop
endfacet
facet normal 1.9397208E-01 -0.0000000E+00 9.8100704E-01
outer loop
vertex 1.1578947E+01 -0.0000000E+00 -1.1578947E+00
vertex 1.1578947E+01 1.2700000E-01 -1.1578947E+00
vertex 1.1315789E+01 1.2700000E-01 -1.1058612E+00
endloop
endfacet
facet normal 1.9825773E-01 0.0000000E+00 9.8014992E-01
outer loop
vertex 1.1842105E+01 1.2700000E-01 -1.2111244E+00
vertex 1.1578947E+01 1.2700000E-01 -1.1578947E+00
vertex 1.1842105E+01 -0.0000000E+00 -1.2111244E+00
endloop
endfacet
facet normal 2.1951228E-01 -0.0000000E+00 9.7560972E-01
outer loop
vertex 1.3157895E+01 -0.0000000E+00 -1.4952153E+00
vertex 1.3157895E+01 1.2700000E-01 -1.4952153E+00
vertex 1.2894737E+01 1.2700000E-01 -1.4360048E+00
endloop
endfacet
facet normal 1.9825773E-01 -0.0000000E+00 9.8014992E-01
outer loop
vertex 1.1842105E+01 -1.2700000E-01 -1.2111244E+00
vertex 1.1842105E+01 -0.0000000E+00 -1.2111244E+00
vertex 1.1578947E+01 -0.0000000E+00 -1.1578947E+00
endloop
endfacet
facet normal 2.0253205E-01 -0.0000000E+00 9.7927564E-01
outer loop
vertex 1.2105263E+01 -1.2700000E-01 -1.2655503E+00
vertex 1.2105263E+01 -0.0000000E+00 -1.2655503E+00
vertex 1.1842105E+01 -0.0000000E+00 -1.2111244E+00
endloop
endfacet
facet normal 2.0253205E-01 0.0000000E+00 9.7927564E-01
outer loop
vertex 1.2105263E+01 -0.0000000E+00 -1.2655503E+00
vertex 1.1842105E+01 1.2700000E-01 -1.2111244E+00
vertex 1.1842105E+01 -0.0000000E+00 -1.2111244E+00
endloop
endfacet
facet normal 2.1104550E-01 -0.0000000E+00 9.7747624E-01
outer loop
vertex 1.2631579E+01 -0.0000000E+00 -1.3779905E+00
vertex 1.2631579E+01 1.2700000E-01 -1.3779905E+00
vertex 1.2368421E+01 1.2700000E-01 -1.3211722E+00
endloop
endfacet
facet normal 2.1528491E-01 -0.0000000E+00 9.7655129E-01
outer loop
vertex 1.2631579E+01 -0.0000000E+00 -1.3779905E+00
vertex 1.2894737E+01 -0.0000000E+00 -1.4360048E+00
vertex 1.2631579E+01 1.2700000E-01 -1.3779905E+00
endloop
endfacet
facet normal 1.1067939E-01 0.0000000E+00 9.9385613E-01
outer loop
vertex 6.3157897E+00 1.2700000E-01 -3.4449762E-01
vertex 6.5789475E+00 -0.0000000E+00 -3.7380382E-01
vertex 6.5789475E+00 1.2700000E-01 -3.7380382E-01
endloop
endfacet
facet normal 1.2847196E-01 -0.0000000E+00 9.9171311E-01
outer loop
vertex 7.3684211E+00 -0.0000000E+00 -4.6889952E-01
vertex 7.6315789E+00 -0.0000000E+00 -5.0299042E-01
vertex 7.3684211E+00 1.2700000E-01 -4.6889952E-01
endloop
endfacet
facet normal 1.2847196E-01 0.0000000E+00 9.9171311E-01
outer loop
vertex 7.3684211E+00 -0.0000000E+00 -4.6889952E-01
vertex 7.6315789E+00 -1.2700000E-01 -5.0299042E-01
vertex 7.6315789E+00 -0.0000000E+00 -5.0299042E-01
endloop
endfacet
facet normal 1.5930286E-01 0.0000000E+00 9.8722970E-01
outer loop
vertex 9.4736843E+00 1.2700000E-01 -7.7511960E-01
vertex 9.2105265E+00 1.2700000E-01 -7.3265553E-01
vertex 9.4736843E+00 -0.0000000E+00 -7.7511960E-01
endloop
endfacet
facet normal 1.6367181E-01 0.0000000E+00 9.8651487E-01
outer loop
vertex 9.7368422E+00 -0.0000000E+00 -8.1877989E-01
vertex 9.4736843E+00 1.2700000E-01 -7.7511960E-01
vertex 9.4736843E+00 -0.0000000E+00 -7.7511960E-01
endloop
endfacet
facet normal 1.1959007E-01 0.0000000E+00 9.9282330E-01
outer loop
vertex 6.8421054E+00 1.2700000E-01 -4.0430623E-01
vertex 6.8421054E+00 -0.0000000E+00 -4.0430623E-01
vertex 7.1052632E+00 -0.0000000E+00 -4.3600479E-01
endloop
endfacet
facet normal 1.1513832E-01 0.0000000E+00 9.9334949E-01
outer loop
vertex 6.8421054E+00 1.2700000E-01 -4.0430623E-01
vertex 6.5789475E+00 1.2700000E-01 -3.7380382E-01
vertex 6.8421054E+00 -0.0000000E+00 -4.0430623E-01
endloop
endfacet
facet normal 1.2403474E-01 0.0000000E+00 9.9227792E-01
outer loop
vertex 7.1052632E+00 1.2700000E-01 -4.3600479E-01
vertex 7.1052632E+00 -0.0000000E+00 -4.3600479E-01
vertex 7.3684211E+00 -0.0000000E+00 -4.6889952E-01
endloop
endfacet
facet normal 1.3290146E-01 -0.0000000E+00 9.9112928E-01
outer loop
vertex 7.6315789E+00 -1.2700000E-01 -5.0299042E-01
vertex 7.8947368E+00 -1.2700000E-01 -5.3827751E-01
vertex 7.6315789E+00 -0.0000000E+00 -5.0299042E-01
endloop
endfacet
facet normal 1.2403474E-01 0.0000000E+00 9.9227792E-01
outer loop
vertex 7.1052632E+00 1.2700000E-01 -4.3600479E-01
vertex 7.3684211E+00 -0.0000000E+00 -4.6889952E-01
vertex 7.3684211E+00 1.2700000E-01 -4.6889952E-01
endloop
endfacet
facet normal 1.3732289E-01 0.0000000E+00 9.9052638E-01
outer loop
vertex 8.1578951E+00 -1.2700000E-01 -5.7476079E-01
vertex 7.8947368E+00 -0.0000000E+00 -5.3827751E-01
vertex 7.8947368E+00 -1.2700000E-01 -5.3827751E-01
endloop
endfacet
facet normal 1.3732289E-01 -0.0000000E+00 9.9052638E-01
outer loop
vertex 8.1578951E+00 -1.2700000E-01 -5.7476079E-01
vertex 8.1578951E+00 -0.0000000E+00 -5.7476079E-01
vertex 7.8947368E+00 -0.0000000E+00 -5.3827751E-01
endloop
endfacet
facet normal 1.6367181E-01 0.0000000E+00 9.8651487E-01
outer loop
vertex 9.4736843E+00 1.2700000E-01 -7.7511960E-01
vertex 9.7368422E+00 -0.0000000E+00 -8.1877989E-01
vertex 9.7368422E+00 1.2700000E-01 -8.1877989E-01
endloop
endfacet
facet normal 1.6803111E-01 -0.0000000E+00 9.8578167E-01
outer loop
vertex 9.7368422E+00 -1.2700000E-01 -8.1877989E-01
vertex 1.0000000E+01 -1.2700000E-01 -8.6363637E-01
vertex 9.7368422E+00 -0.0000000E+00 -8.1877989E-01
endloop
endfacet
facet normal 1.6803111E-01 0.0000000E+00 9.8578167E-01
outer loop
vertex 9.7368422E+00 1.2700000E-01 -8.1877989E-01
vertex 1.0000000E+01 -0.0000000E+00 -8.6363637E-01
vertex 1.0000000E+01 1.2700000E-01 -8.6363637E-01
endloop
endfacet
facet normal 1.7671958E-01 0.0000000E+00 9.8426127E-01
outer loop
vertex 1.0263158E+01 -0.0000000E+00 -9.0968901E-01
vertex 1.0526316E+01 -1.2700000E-01 -9.5693779E-01
vertex 1.0526316E+01 -0.0000000E+00 -9.5693779E-01
endloop
endfacet
facet normal 1.9397208E-01 0.0000000E+00 9.8100704E-01
outer loop
vertex 1.1578947E+01 -1.2700000E-01 -1.1578947E+00
vertex 1.1315789E+01 -0.0000000E+00 -1.1058612E+00
vertex 1.1315789E+01 -1.2700000E-01 -1.1058612E+00
endloop
endfacet
facet normal 1.9397208E-01 0.0000000E+00 9.8100704E-01
outer loop
vertex 1.1578947E+01 -0.0000000E+00 -1.1578947E+00
vertex 1.1315789E+01 1.2700000E-01 -1.1058612E+00
vertex 1.1315789E+01 -0.0000000E+00 -1.1058612E+00
endloop
endfacet
facet normal 1.9397208E-01 -0.0000000E+00 9.8100704E-01
outer loop
vertex 1.1578947E+01 -1.2700000E-01 -1.1578947E+00
vertex 1.1578947E+01 -0.0000000E+00 -1.1578947E+00
vertex 1.1315789E+01 -0.0000000E+00 -1.1058612E+00
endloop
endfacet
facet normal 1.9825773E-01 0.0000000E+00 9.8014992E-01
outer loop
vertex 1.1842105E+01 -0.0000000E+00 -1.2111244E+00
vertex 1.1578947E+01 1.2700000E-01 -1.1578947E+00
vertex 1.1578947E+01 -0.0000000E+00 -1.1578947E+00
endloop
endfacet
facet normal 1.8104872E-01 0.0000000E+00 9.8347414E-01
outer loop
vertex 1.0526316E+01 1.2700000E-01 -9.5693779E-01
vertex 1.0526316E+01 -0.0000000E+00 -9.5693779E-01
vertex 1.0789474E+01 -0.0000000E+00 -1.0053828E+00
endloop
endfacet
facet normal 1.7671958E-01 0.0000000E+00 9.8426127E-01
outer loop
vertex 1.0526316E+01 1.2700000E-01 -9.5693779E-01
vertex 1.0263158E+01 1.2700000E-01 -9.0968901E-01
vertex 1.0526316E+01 -0.0000000E+00 -9.5693779E-01
endloop
endfacet
facet normal 2.0253205E-01 0.0000000E+00 9.7927564E-01
outer loop
vertex 1.1842105E+01 1.2700000E-01 -1.2111244E+00
vertex 1.2105263E+01 -0.0000000E+00 -1.2655503E+00
vertex 1.2105263E+01 1.2700000E-01 -1.2655503E+00
endloop
endfacet
facet normal 2.0679480E-01 -0.0000000E+00 9.7838432E-01
outer loop
vertex 1.2105263E+01 -1.2700000E-01 -1.2655503E+00
vertex 1.2368421E+01 -1.2700000E-01 -1.3211722E+00
vertex 1.2105263E+01 -0.0000000E+00 -1.2655503E+00
endloop
endfacet
facet normal 2.1951228E-01 0.0000000E+00 9.7560972E-01
outer loop
vertex 1.3157895E+01 -1.2700000E-01 -1.4952153E+00
vertex 1.2894737E+01 -0.0000000E+00 -1.4360048E+00
vertex 1.2894737E+01 -1.2700000E-01 -1.4360048E+00
endloop
endfacet
facet normal 2.1951228E-01 0.0000000E+00 9.7560972E-01
outer loop
vertex 1.3157895E+01 -0.0000000E+00 -1.4952153E+00
vertex 1.2894737E+01 1.2700000E-01 -1.4360048E+00
vertex 1.2894737E+01 -0.0000000E+00 -1.4360048E+00
endloop
endfacet
facet normal 1.8536714E-01 0.0000000E+00 9.8266935E-01
outer loop
vertex 1.0789474E+01 1.2700000E-01 -1.0053828E+00
vertex 1.0789474E+01 -0.0000000E+00 -1.0053828E+00
vertex 1.1052631E+01 -0.0000000E+00 -1.0550239E+00
endloop
endfacet
facet normal 1.8104872E-01 0.0000000E+00 9.8347414E-01
outer loop
vertex 1.0789474E+01 1.2700000E-01 -1.0053828E+00
vertex 1.0526316E+01 1.2700000E-01 -9.5693779E-01
vertex 1.0789474E+01 -0.0000000E+00 -1.0053828E+00
endloop
endfacet
facet normal 2.2372690E-01 -0.0000000E+00 9.7465187E-01
outer loop
vertex 1.3421053E+01 -0.0000000E+00 -1.5556220E+00
vertex 1.3421053E+01 1.2700000E-01 -1.5556220E+00
vertex 1.3157895E+01 1.2700000E-01 -1.4952153E+00
endloop
endfacet
facet normal 2.1951228E-01 -0.0000000E+00 9.7560972E-01
outer loop
vertex 1.3157895E+01 -1.2700000E-01 -1.4952153E+00
vertex 1.3157895E+01 -0.0000000E+00 -1.4952153E+00
vertex 1.2894737E+01 -0.0000000E+00 -1.4360048E+00
endloop
endfacet
facet normal 2.2372690E-01 -0.0000000E+00 9.7465187E-01
outer loop
vertex 1.3157895E+01 -1.2700000E-01 -1.4952153E+00
vertex 1.3421053E+01 -1.2700000E-01 -1.5556220E+00
vertex 1.3157895E+01 -0.0000000E+00 -1.4952153E+00
endloop
endfacet
facet normal 2.2372690E-01 -0.0000000E+00 9.7465187E-01
outer loop
vertex 1.3421053E+01 -1.2700000E-01 -1.5556220E+00
vertex 1.3421053E+01 -0.0000000E+00 -1.5556220E+00
vertex 1.3157895E+01 -0.0000000E+00 -1.4952153E+00
endloop
endfacet
facet normal 1.5053734E-01 -0.0000000E+00 9.8860437E-01
outer loop
vertex 8.9473686E+00 -1.2700000E-01 -6.9138753E-01
vertex 8.9473686E+00 -0.0000000E+00 -6.9138753E-01
vertex 8.6842108E+00 -0.0000000E+00 -6.5131581E-01
endloop
endfacet
facet normal 1.5492502E-01 0.0000000E+00 9.8792624E-01
outer loop
vertex 9.2105265E+00 -1.2700000E-01 -7.3265553E-01
vertex 8.9473686E+00 -0.0000000E+00 -6.9138753E-01
vertex 8.9473686E+00 -1.2700000E-01 -6.9138753E-01
endloop
endfacet
facet normal 1.5492502E-01 0.0000000E+00 9.8792624E-01
outer loop
vertex 9.2105265E+00 -0.0000000E+00 -7.3265553E-01
vertex 8.9473686E+00 1.2700000E-01 -6.9138753E-01
vertex 8.9473686E+00 -0.0000000E+00 -6.9138753E-01
endloop
endfacet
facet normal 1.6803111E-01 0.0000000E+00 9.8578167E-01
outer loop
vertex 9.7368422E+00 -0.0000000E+00 -8.1877989E-01
vertex 1.0000000E+01 -1.2700000E-01 -8.6363637E-01
vertex 1.0000000E+01 -0.0000000E+00 -8.6363637E-01
endloop
endfacet
facet normal 1.4173616E-01 -0.0000000E+00 9.8990452E-01
outer loop
vertex 8.4210529E+00 -1.2700000E-01 -6.1244017E-01
vertex 8.4210529E+00 -0.0000000E+00 -6.1244017E-01
vertex 8.1578951E+00 -0.0000000E+00 -5.7476079E-01
endloop
endfacet
facet normal 1.4614141E-01 -0.0000000E+00 9.8926371E-01
outer loop
vertex 8.6842108E+00 -1.2700000E-01 -6.5131581E-01
vertex 8.6842108E+00 -0.0000000E+00 -6.5131581E-01
vertex 8.4210529E+00 -0.0000000E+00 -6.1244017E-01
endloop
endfacet
facet normal 1.5053734E-01 0.0000000E+00 9.8860437E-01
outer loop
vertex 8.9473686E+00 -1.2700000E-01 -6.9138753E-01
vertex 8.6842108E+00 -0.0000000E+00 -6.5131581E-01
vertex 8.6842108E+00 -1.2700000E-01 -6.5131581E-01
endloop
endfacet
facet normal 1.5053734E-01 0.0000000E+00 9.8860437E-01
outer loop
vertex 8.9473686E+00 -0.0000000E+00 -6.9138753E-01
vertex 8.6842108E+00 1.2700000E-01 -6.5131581E-01
vertex 8.6842108E+00 -0.0000000E+00 -6.5131581E-01
endloop
endfacet
facet normal 1.5492502E-01 -0.0000000E+00 9.8792624E-01
outer loop
vertex 9.2105265E+00 -1.2700000E-01 -7.3265553E-01
vertex 9.2105265E+00 -0.0000000E+00 -7.3265553E-01
vertex 8.9473686E+00 -0.0000000E+00 -6.9138753E-01
endloop
endfacet
facet normal 1.5930286E-01 0.0000000E+00 9.8722970E-01
outer loop
vertex 9.4736843E+00 -0.0000000E+00 -7.7511960E-01
vertex 9.2105265E+00 1.2700000E-01 -7.3265553E-01
vertex 9.2105265E+00 -0.0000000E+00 -7.3265553E-01
endloop
endfacet
facet normal 1.7238037E-01 0.0000000E+00 9.8503041E-01
outer loop
vertex 1.0000000E+01 1.2700000E-01 -8.6363637E-01
vertex 1.0263158E+01 -0.0000000E+00 -9.0968901E-01
vertex 1.0263158E+01 1.2700000E-01 -9.0968901E-01
endloop
endfacet
facet normal 1.7671958E-01 -0.0000000E+00 9.8426127E-01
outer loop
vertex 1.0263158E+01 -1.2700000E-01 -9.0968901E-01
vertex 1.0526316E+01 -1.2700000E-01 -9.5693779E-01
vertex 1.0263158E+01 -0.0000000E+00 -9.0968901E-01
endloop
endfacet
facet normal 7.0280269E-02 0.0000000E+00 9.9752736E-01
outer loop
vertex 3.9473684E+00 1.2700000E-01 -1.3456938E-01
vertex 4.2105265E+00 -0.0000000E+00 -1.5311004E-01
vertex 4.2105265E+00 1.2700000E-01 -1.5311004E-01
endloop
endfacet
facet normal 7.4789964E-02 -0.0000000E+00 9.9719924E-01
outer loop
vertex 4.2105265E+00 -1.2700000E-01 -1.5311004E-01
vertex 4.4736843E+00 -1.2700000E-01 -1.7284688E-01
vertex 4.2105265E+00 -0.0000000E+00 -1.5311004E-01
endloop
endfacet
facet normal 1.1067939E-01 0.0000000E+00 9.9385613E-01
outer loop
vertex 6.3157897E+00 1.2700000E-01 -3.4449762E-01
vertex 6.3157897E+00 -0.0000000E+00 -3.4449762E-01
vertex 6.5789475E+00 -0.0000000E+00 -3.7380382E-01
endloop
endfacet
facet normal 1.0174206E-01 0.0000000E+00 9.9481082E-01
outer loop
vertex 6.0526314E+00 -0.0000000E+00 -3.1638756E-01
vertex 5.7894735E+00 -0.0000000E+00 -2.8947368E-01
vertex 6.0526314E+00 -1.2700000E-01 -3.1638756E-01
endloop
endfacet
facet normal 1.3732289E-01 0.0000000E+00 9.9052638E-01
outer loop
vertex 7.8947368E+00 1.2700000E-01 -5.3827751E-01
vertex 8.1578951E+00 -0.0000000E+00 -5.7476079E-01
vertex 8.1578951E+00 1.2700000E-01 -5.7476079E-01
endloop
endfacet
facet normal 1.4173616E-01 -0.0000000E+00 9.8990452E-01
outer loop
vertex 8.1578951E+00 -1.2700000E-01 -5.7476079E-01
vertex 8.4210529E+00 -1.2700000E-01 -6.1244017E-01
vertex 8.1578951E+00 -0.0000000E+00 -5.7476079E-01
endloop
endfacet
facet normal 2.2727211E-03 -0.0000000E+00 9.9999744E-01
outer loop
vertex 2.6315790E-01 -1.2700000E-01 -5.9808610E-04
vertex 2.6315790E-01 -0.0000000E+00 -5.9808610E-04
vertex -0.0000000E+00 -0.0000000E+00 0.0000000E+00
endloop
endfacet
facet normal 6.8180235E-03 0.0000000E+00 9.9997681E-01
outer loop
vertex 5.2631581E-01 -0.0000000E+00 -2.3923444E-03
vertex 2.6315790E-01 1.2700000E-01 -5.9808610E-04
vertex 2.6315790E-01 -0.0000000E+00 -5.9808610E-04
endloop
endfacet
facet normal 1.5907075E-02 0.0000000E+00 9.9987352E-01
outer loop
vertex 7.8947371E-01 1.2700000E-01 -5.3827753E-03
vertex 1.0526316E+00 -0.0000000E+00 -9.5693776E-03
vertex 1.0526316E+00 1.2700000E-01 -9.5693776E-03
endloop
endfacet
facet normal 1.5907075E-02 0.0000000E+00 9.9987352E-01
outer loop
vertex 7.8947371E-01 -0.0000000E+00 -5.3827753E-03
vertex 1.0526316E+00 -1.2700000E-01 -9.5693776E-03
vertex 1.0526316E+00 -0.0000000E+00 -9.5693776E-03
endloop
endfacet
facet normal 4.7673017E-02 0.0000000E+00 9.9886304E-01
outer loop
vertex 2.6315789E+00 -0.0000000E+00 -5.9808612E-02
vertex 2.8947368E+00 -1.2700000E-01 -7.2368421E-02
vertex 2.8947368E+00 -0.0000000E+00 -7.2368421E-02
endloop
endfacet
facet normal 7.0280269E-02 -0.0000000E+00 9.9752736E-01
outer loop
vertex 3.9473684E+00 -1.2700000E-01 -1.3456938E-01
vertex 4.2105265E+00 -1.2700000E-01 -1.5311004E-01
vertex 3.9473684E+00 -0.0000000E+00 -1.3456938E-01
endloop
endfacet
facet normal 6.1248425E-02 0.0000000E+00 9.9812257E-01
outer loop
vertex 3.4210527E+00 1.2700000E-01 -1.0107656E-01
vertex 3.4210527E+00 -0.0000000E+00 -1.0107656E-01
vertex 3.6842105E+00 -0.0000000E+00 -1.1722488E-01
endloop
endfacet
facet normal 5.2201439E-02 0.0000000E+00 9.9863666E-01
outer loop
vertex 3.1578948E+00 -1.2700000E-01 -8.6124405E-02
vertex 2.8947368E+00 -0.0000000E+00 -7.2368421E-02
vertex 2.8947368E+00 -1.2700000E-01 -7.2368421E-02
endloop
endfacet
facet normal 6.8180235E-03 0.0000000E+00 9.9997681E-01
outer loop
vertex 5.2631581E-01 -0.0000000E+00 -2.3923444E-03
vertex 2.6315790E-01 -0.0000000E+00 -5.9808610E-04
vertex 5.2631581E-01 -1.2700000E-01 -2.3923444E-03
endloop
endfacet
facet normal 2.0450274E-02 0.0000000E+00 9.9979091E-01
outer loop
vertex 1.0526316E+00 -0.0000000E+00 -9.5693776E-03
vertex 1.0526316E+00 -1.2700000E-01 -9.5693776E-03
vertex 1.3157895E+00 -1.2700000E-01 -1.4952153E-02
endloop
endfacet
facet normal 4.3141626E-02 0.0000000E+00 9.9906898E-01
outer loop
vertex 2.6315789E+00 -0.0000000E+00 -5.9808612E-02
vertex 2.3684211E+00 -0.0000000E+00 -4.8444975E-02
vertex 2.6315789E+00 -1.2700000E-01 -5.9808612E-02
endloop
endfacet
facet normal 3.8607568E-02 0.0000000E+00 9.9925441E-01
outer loop
vertex 2.3684211E+00 1.2700000E-01 -4.8444975E-02
vertex 2.1052632E+00 1.2700000E-01 -3.8277511E-02
vertex 2.3684211E+00 -0.0000000E+00 -4.8444975E-02
endloop
endfacet
facet normal 5.2201439E-02 0.0000000E+00 9.9863666E-01
outer loop
vertex 3.1578948E+00 -0.0000000E+00 -8.6124405E-02
vertex 2.8947368E+00 -0.0000000E+00 -7.2368421E-02
vertex 3.1578948E+00 -1.2700000E-01 -8.6124405E-02
endloop
endfacet
facet normal 7.4789964E-02 0.0000000E+00 9.9719924E-01
outer loop
vertex 4.2105265E+00 1.2700000E-01 -1.5311004E-01
vertex 4.4736843E+00 -0.0000000E+00 -1.7284688E-01
vertex 4.4736843E+00 1.2700000E-01 -1.7284688E-01
endloop
endfacet
facet normal 8.3795197E-02 -0.0000000E+00 9.9648297E-01
outer loop
vertex 4.7368422E+00 -0.0000000E+00 -1.9377990E-01
vertex 5.0000000E+00 -0.0000000E+00 -2.1590909E-01
vertex 4.7368422E+00 1.2700000E-01 -1.9377990E-01
endloop
endfacet
facet normal 7.4789964E-02 0.0000000E+00 9.9719924E-01
outer loop
vertex 4.2105265E+00 -0.0000000E+00 -1.5311004E-01
vertex 4.4736843E+00 -1.2700000E-01 -1.7284688E-01
vertex 4.4736843E+00 -0.0000000E+00 -1.7284688E-01
endloop
endfacet
facet normal 7.9295009E-02 0.0000000E+00 9.9685121E-01
outer loop
vertex 4.4736843E+00 -0.0000000E+00 -1.7284688E-01
vertex 4.4736843E+00 -1.2700000E-01 -1.7284688E-01
vertex 4.7368422E+00 -1.2700000E-01 -1.9377990E-01
endloop
endfacet
facet normal 9.7263940E-02 0.0000000E+00 9.9525869E-01
outer loop
vertex 5.5263157E+00 1.2700000E-01 -2.6375598E-01
vertex 5.5263157E+00 -0.0000000E+00 -2.6375598E-01
vertex 5.7894735E+00 -0.0000000E+00 -2.8947368E-01
endloop
endfacet
facet normal 8.3795197E-02 -0.0000000E+00 9.9648297E-01
outer loop
vertex 4.7368422E+00 -1.2700000E-01 -1.9377990E-01
vertex 5.0000000E+00 -1.2700000E-01 -2.1590909E-01
vertex 4.7368422E+00 -0.0000000E+00 -1.9377990E-01
endloop
endfacet
facet normal 1.2403474E-01 0.0000000E+00 9.9227792E-01
outer loop
vertex 7.1052632E+00 -0.0000000E+00 -4.3600479E-01
vertex 7.1052632E+00 -1.2700000E-01 -4.3600479E-01
vertex 7.3684211E+00 -1.2700000E-01 -4.6889952E-01
endloop
endfacet
facet normal 6.1248425E-02 0.0000000E+00 9.9812257E-01
outer loop
vertex 3.4210527E+00 -0.0000000E+00 -1.0107656E-01
vertex 3.6842105E+00 -1.2700000E-01 -1.1722488E-01
vertex 3.6842105E+00 -0.0000000E+00 -1.1722488E-01
endloop
endfacet
facet normal 6.5766409E-02 0.0000000E+00 9.9783498E-01
outer loop
vertex 3.6842105E+00 -0.0000000E+00 -1.1722488E-01
vertex 3.9473684E+00 -1.2700000E-01 -1.3456938E-01
vertex 3.9473684E+00 -0.0000000E+00 -1.3456938E-01
endloop
endfacet
facet normal 8.3795197E-02 0.0000000E+00 9.9648297E-01
outer loop
vertex 4.7368422E+00 -0.0000000E+00 -1.9377990E-01
vertex 5.0000000E+00 -1.2700000E-01 -2.1590909E-01
vertex 5.0000000E+00 -0.0000000E+00 -2.1590909E-01
endloop
endfacet
facet normal 6.8180235E-03 0.0000000E+00 9.9997681E-01
outer loop
vertex 5.2631581E-01 -1.2700000E-01 -2.3923444E-03
vertex 2.6315790E-01 -0.0000000E+00 -5.9808610E-04
vertex 2.6315790E-01 -1.2700000E-01 -5.9808610E-04
endloop
endfacet
facet normal 1.5907075E-02 0.0000000E+00 9.9987352E-01
outer loop
vertex 7.8947371E-01 -0.0000000E+00 -5.3827753E-03
vertex 7.8947371E-01 -1.2700000E-01 -5.3827753E-03
vertex 1.0526316E+00 -1.2700000E-01 -9.5693776E-03
endloop
endfacet
facet normal 1.1362904E-02 0.0000000E+00 9.9993545E-01
outer loop
vertex 7.8947371E-01 -0.0000000E+00 -5.3827753E-03
vertex 5.2631581E-01 -0.0000000E+00 -2.3923444E-03
vertex 7.8947371E-01 -1.2700000E-01 -5.3827753E-03
endloop
endfacet
facet normal 2.4992188E-02 0.0000000E+00 9.9968761E-01
outer loop
vertex 1.5789474E+00 -0.0000000E+00 -2.1531101E-02
vertex 1.3157895E+00 -0.0000000E+00 -1.4952153E-02
vertex 1.5789474E+00 -1.2700000E-01 -2.1531101E-02
endloop
endfacet
facet normal 5.6726702E-02 0.0000000E+00 9.9838972E-01
outer loop
vertex 3.4210527E+00 -1.2700000E-01 -1.0107656E-01
vertex 3.1578948E+00 -0.0000000E+00 -8.6124405E-02
vertex 3.1578948E+00 -1.2700000E-01 -8.6124405E-02
endloop
endfacet
facet normal 3.4071103E-02 0.0000000E+00 9.9941939E-01
outer loop
vertex 1.8421053E+00 -0.0000000E+00 -2.9306220E-02
vertex 1.8421053E+00 -1.2700000E-01 -2.9306220E-02
vertex 2.1052632E+00 -1.2700000E-01 -3.8277511E-02
endloop
endfacet
facet normal 2.9532569E-02 0.0000000E+00 9.9956375E-01
outer loop
vertex 1.8421053E+00 -0.0000000E+00 -2.9306220E-02
vertex 1.5789474E+00 -0.0000000E+00 -2.1531101E-02
vertex 1.8421053E+00 -1.2700000E-01 -2.9306220E-02
endloop
endfacet
facet normal 4.3141626E-02 0.0000000E+00 9.9906898E-01
outer loop
vertex 2.3684211E+00 -0.0000000E+00 -4.8444975E-02
vertex 2.3684211E+00 -1.2700000E-01 -4.8444975E-02
vertex 2.6315789E+00 -1.2700000E-01 -5.9808612E-02
endloop
endfacet
facet normal 3.8607568E-02 0.0000000E+00 9.9925441E-01
outer loop
vertex 2.3684211E+00 -0.0000000E+00 -4.8444975E-02
vertex 2.1052632E+00 -0.0000000E+00 -3.8277511E-02
vertex 2.3684211E+00 -1.2700000E-01 -4.8444975E-02
endloop
endfacet
facet normal 6.1248425E-02 0.0000000E+00 9.9812257E-01
outer loop
vertex 3.4210527E+00 -0.0000000E+00 -1.0107656E-01
vertex 3.4210527E+00 -1.2700000E-01 -1.0107656E-01
vertex 3.6842105E+00 -1.2700000E-01 -1.1722488E-01
endloop
endfacet
facet normal 5.6726702E-02 0.0000000E+00 9.9838972E-01
outer loop
vertex 3.4210527E+00 -0.0000000E+00 -1.0107656E-01
vertex 3.1578948E+00 -0.0000000E+00 -8.6124405E-02
vertex 3.4210527E+00 -1.2700000E-01 -1.0107656E-01
endloop
endfacet
facet normal 8.8290215E-02 -0.0000000E+00 9.9609476E-01
outer loop
vertex 5.0000000E+00 -1.2700000E-01 -2.1590909E-01
vertex 5.2631578E+00 -1.2700000E-01 -2.3923445E-01
vertex 5.0000000E+00 -0.0000000E+00 -2.1590909E-01
endloop
endfacet
facet normal 9.2779912E-02 -0.0000000E+00 9.9568671E-01
outer loop
vertex 5.2631578E+00 -1.2700000E-01 -2.3923445E-01
vertex 5.5263157E+00 -1.2700000E-01 -2.6375598E-01
vertex 5.2631578E+00 -0.0000000E+00 -2.3923445E-01
endloop
endfacet
facet normal 9.2779912E-02 -0.0000000E+00 9.9568671E-01
outer loop
vertex 5.5263157E+00 -1.2700000E-01 -2.6375598E-01
vertex 5.5263157E+00 -0.0000000E+00 -2.6375598E-01
vertex 5.2631578E+00 -0.0000000E+00 -2.3923445E-01
endloop
endfacet
facet normal 9.7263940E-02 -0.0000000E+00 9.9525869E-01
outer loop
vertex 5.7894735E+00 -1.2700000E-01 -2.8947368E-01
vertex 5.7894735E+00 -0.0000000E+00 -2.8947368E-01
vertex 5.5263157E+00 -0.0000000E+00 -2.6375598E-01
endloop
endfacet
facet normal 1.1959007E-01 0.0000000E+00 9.9282330E-01
outer loop
vertex 7.1052632E+00 -0.0000000E+00 -4.3600479E-01
vertex 6.8421054E+00 -0.0000000E+00 -4.0430623E-01
vertex 7.1052632E+00 -1.2700000E-01 -4.3600479E-01
endloop
endfacet
facet normal 1.2847196E-01 0.0000000E+00 9.9171311E-01
outer loop
vertex 7.3684211E+00 -0.0000000E+00 -4.6889952E-01
vertex 7.3684211E+00 -1.2700000E-01 -4.6889952E-01
vertex 7.6315789E+00 -1.2700000E-01 -5.0299042E-01
endloop
endfacet
facet normal 1.2403474E-01 0.0000000E+00 9.9227792E-01
outer loop
vertex 7.3684211E+00 -0.0000000E+00 -4.6889952E-01
vertex 7.1052632E+00 -0.0000000E+00 -4.3600479E-01
vertex 7.3684211E+00 -1.2700000E-01 -4.6889952E-01
endloop
endfacet
facet normal 1.4614141E-01 0.0000000E+00 9.8926371E-01
outer loop
vertex 8.6842108E+00 -1.2700000E-01 -6.5131581E-01
vertex 8.4210529E+00 -0.0000000E+00 -6.1244017E-01
vertex 8.4210529E+00 -1.2700000E-01 -6.1244017E-01
endloop
endfacet
facet normal 1.0174206E-01 0.0000000E+00 9.9481082E-01
outer loop
vertex 6.0526314E+00 -1.2700000E-01 -3.1638756E-01
vertex 5.7894735E+00 -0.0000000E+00 -2.8947368E-01
vertex 5.7894735E+00 -1.2700000E-01 -2.8947368E-01
endloop
endfacet
facet normal 1.0621382E-01 0.0000000E+00 9.9434334E-01
outer loop
vertex 6.3157897E+00 -1.2700000E-01 -3.4449762E-01
vertex 6.0526314E+00 -0.0000000E+00 -3.1638756E-01
vertex 6.0526314E+00 -1.2700000E-01 -3.1638756E-01
endloop
endfacet
facet normal 1.0621382E-01 0.0000000E+00 9.9434334E-01
outer loop
vertex 6.3157897E+00 -0.0000000E+00 -3.4449762E-01
vertex 6.0526314E+00 -0.0000000E+00 -3.1638756E-01
vertex 6.3157897E+00 -1.2700000E-01 -3.4449762E-01
endloop
endfacet
facet normal 1.1513832E-01 0.0000000E+00 9.9334949E-01
outer loop
vertex 6.5789475E+00 -0.0000000E+00 -3.7380382E-01
vertex 6.5789475E+00 -1.2700000E-01 -3.7380382E-01
vertex 6.8421054E+00 -1.2700000E-01 -4.0430623E-01
endloop
endfacet
facet normal 1.1067939E-01 0.0000000E+00 9.9385613E-01
outer loop
vertex 6.5789475E+00 -0.0000000E+00 -3.7380382E-01
vertex 6.3157897E+00 -0.0000000E+00 -3.4449762E-01
vertex 6.5789475E+00 -1.2700000E-01 -3.7380382E-01
endloop
endfacet
facet normal 1.5930286E-01 -0.0000000E+00 9.8722970E-01
outer loop
vertex 9.4736843E+00 -1.2700000E-01 -7.7511960E-01
vertex 9.4736843E+00 -0.0000000E+00 -7.7511960E-01
vertex 9.2105265E+00 -0.0000000E+00 -7.3265553E-01
endloop
endfacet
facet normal 1.7238037E-01 0.0000000E+00 9.8503041E-01
outer loop
vertex 1.0000000E+01 -0.0000000E+00 -8.6363637E-01
vertex 1.0263158E+01 -1.2700000E-01 -9.0968901E-01
vertex 1.0263158E+01 -0.0000000E+00 -9.0968901E-01
endloop
endfacet
facet normal 1.8104872E-01 0.0000000E+00 9.8347414E-01
outer loop
vertex 1.0789474E+01 -0.0000000E+00 -1.0053828E+00
vertex 1.0526316E+01 -0.0000000E+00 -9.5693779E-01
vertex 1.0789474E+01 -1.2700000E-01 -1.0053828E+00
endloop
endfacet
facet normal 2.0253205E-01 0.0000000E+00 9.7927564E-01
outer loop
vertex 1.2105263E+01 -1.2700000E-01 -1.2655503E+00
vertex 1.1842105E+01 -0.0000000E+00 -1.2111244E+00
vertex 1.1842105E+01 -1.2700000E-01 -1.2111244E+00
endloop
endfacet
facet normal 1.6367181E-01 0.0000000E+00 9.8651487E-01
outer loop
vertex 9.7368422E+00 -1.2700000E-01 -8.1877989E-01
vertex 9.4736843E+00 -0.0000000E+00 -7.7511960E-01
vertex 9.4736843E+00 -1.2700000E-01 -7.7511960E-01
endloop
endfacet
facet normal 1.8967487E-01 0.0000000E+00 9.8184699E-01
outer loop
vertex 1.1052631E+01 -0.0000000E+00 -1.0550239E+00
vertex 1.1052631E+01 -1.2700000E-01 -1.0550239E+00
vertex 1.1315789E+01 -1.2700000E-01 -1.1058612E+00
endloop
endfacet
facet normal 1.8536714E-01 0.0000000E+00 9.8266935E-01
outer loop
vertex 1.1052631E+01 -0.0000000E+00 -1.0550239E+00
vertex 1.0789474E+01 -0.0000000E+00 -1.0053828E+00
vertex 1.1052631E+01 -1.2700000E-01 -1.0550239E+00
endloop
endfacet
facet normal 1.9825773E-01 0.0000000E+00 9.8014992E-01
outer loop
vertex 1.1842105E+01 -1.2700000E-01 -1.2111244E+00
vertex 1.1578947E+01 -0.0000000E+00 -1.1578947E+00
vertex 1.1578947E+01 -1.2700000E-01 -1.1578947E+00
endloop
endfacet
endsolid Created by stlwrite.m 28-Apr-2026 09:22:06
